<svg width="23" height="22" viewBox="0 0 23 22" fill="none" xmlns="http://www.w3.org/2000/svg">
<g clip-path="url(#clip0_607_19221)">
<path fill-rule="evenodd" clip-rule="evenodd" d="M17.9818 17.4833C15.1803 20.2851 11.032 20.8904 7.63723 19.3205C7.13608 19.1187 6.72521 18.9556 6.3346 18.9556C5.24663 18.9621 3.89242 20.017 3.18859 19.314C2.48477 18.6101 3.5405 17.2549 3.5405 16.1603C3.5405 15.7697 3.38389 15.3661 3.18214 14.864C1.61144 11.4698 2.21761 7.32006 5.01908 4.51921C8.59531 0.941665 14.4056 0.941666 17.9818 4.51829C21.5645 8.10136 21.558 13.9067 17.9818 17.4833Z" stroke="#212121" stroke-width="1.5" stroke-linecap="round" stroke-linejoin="round"/>
<path d="M15.1113 11.375H15.1196" stroke="#212121" stroke-width="2" stroke-linecap="round" stroke-linejoin="round"/>
<path d="M11.4365 11.375H11.4448" stroke="#212121" stroke-width="2" stroke-linecap="round" stroke-linejoin="round"/>
<path d="M7.76172 11.375H7.76997" stroke="#212121" stroke-width="2" stroke-linecap="round" stroke-linejoin="round"/>
</g>
<defs>
<clipPath id="clip0_607_19221">
<rect width="22" height="22" fill="white" transform="translate(0.5)"/>
</clipPath>
</defs>
</svg>
