<svg width="24" height="23" viewBox="0 0 24 23" fill="none" xmlns="http://www.w3.org/2000/svg">
<g clip-path="url(#clip0_501_2494)">
<path d="M20.0488 6.43087C20.0488 6.43087 17.7486 4.7803 15.0331 4.5918L14.7884 5.04099C17.2431 5.59225 18.3696 6.3803 19.5473 7.35042C17.5174 6.40053 15.5147 5.51133 12.0237 5.51133C8.53283 5.51133 6.53007 6.40053 4.50023 7.35042C5.67791 6.3803 7.0181 5.50398 9.2591 5.04099L9.01434 4.5918C6.16543 4.83778 3.99866 6.43087 3.99866 6.43087C3.99866 6.43087 1.43014 9.84512 0.989258 16.5458C3.57735 19.2829 7.50963 19.3044 7.50963 19.3044L8.33221 18.3003C6.93584 17.8552 5.36092 17.0612 3.99866 15.6262C5.62274 16.7527 8.0739 17.9251 12.0237 17.9251C15.9736 17.9251 18.4247 16.7527 20.0488 15.6262C18.6871 17.0612 17.1121 17.8552 15.7153 18.3003L16.5378 19.3044C16.5378 19.3044 20.4701 19.2829 23.0582 16.5458C22.6173 9.84512 20.0488 6.43087 20.0488 6.43087ZM8.76355 14.7068C7.79352 14.7068 7.00807 13.8838 7.00807 12.8676C7.00807 11.8515 7.79352 11.0286 8.76355 11.0286C9.73358 11.0286 10.519 11.8515 10.519 12.8676C10.519 13.8838 9.73358 14.7068 8.76355 14.7068ZM15.2839 14.7068C14.3139 14.7068 13.5284 13.8838 13.5284 12.8676C13.5284 11.8515 14.3139 11.0286 15.2839 11.0286C16.254 11.0286 17.0394 11.8515 17.0394 12.8676C17.0394 13.8838 16.254 14.7068 15.2839 14.7068Z" fill="#E5E5E5"/>
</g>
<defs>
<clipPath id="clip0_501_2494">
<rect width="22.069" height="22.069" fill="white" transform="translate(0.989258 0.914062)"/>
</clipPath>
</defs>
</svg>
