<svg width="48" height="48" viewBox="0 0 48 48" fill="none" xmlns="http://www.w3.org/2000/svg">
<g clip-path="url(#clip0_607_19158)">
<path d="M28.8 14H26.2C23 14 21 16 21 19.2V23.25H27.25C27.66 23.25 28 23.59 28 24C28 24.41 27.66 24.75 27.25 24.75H21V28.8C21 32 23 34 26.2 34H28.79C31.99 34 33.99 32 33.99 28.8V19.2C34 16 32 14 28.8 14Z" fill="#DBDBDB"/>
<path d="M16.5595 23.2499L18.6295 21.1798C18.7795 21.0298 18.8495 20.8398 18.8495 20.6498C18.8495 20.4598 18.7795 20.2598 18.6295 20.1198C18.3395 19.8298 17.8595 19.8298 17.5695 20.1198L14.2195 23.4699C13.9295 23.7599 13.9295 24.2399 14.2195 24.5299L17.5695 27.8799C17.8595 28.1699 18.3395 28.1699 18.6295 27.8799C18.9195 27.5899 18.9195 27.1099 18.6295 26.8199L16.5595 24.7499H20.9995V23.2499H16.5595Z" fill="#DBDBDB"/>
</g>
<rect x="1" y="1" width="46" height="46" rx="23" stroke="#E5E5E5" stroke-opacity="0.24" stroke-width="2"/>
<defs>
<clipPath id="clip0_607_19158">
<rect width="24" height="24" fill="white" transform="translate(12 12)"/>
</clipPath>
</defs>
</svg>
