<svg width="49" height="33" viewBox="0 0 49 33" fill="none" xmlns="http://www.w3.org/2000/svg">
<path d="M48.3426 6.08482C48.3426 6.08482 46.9668 4.8726 42.5115 3.01001C38.6022 1.37225 35.616 0.996094 35.616 0.996094L35.6308 10.7082C35.6308 14.8132 31.5556 19.1721 24.5957 19.1721H24.3966C17.4376 19.1721 13.3637 14.8132 13.3637 10.7082L13.3773 0.996094C13.3773 0.996094 10.394 1.37203 6.48306 3.01001C2.02796 4.8726 0.652344 6.08482 0.652344 6.08482C0.982603 13.874 11.6129 20.2915 24.4948 20.2949H24.4978C37.3805 20.2915 48.0134 13.874 48.3426 6.08482Z" fill="white"/>
<path d="M48.3484 27.8945C48.3484 27.8945 46.9728 29.1034 42.5175 30.9675C38.6054 32.6055 35.6218 32.9799 35.6218 32.9799L35.6368 23.2694C35.6368 19.1653 31.5614 14.8079 24.6017 14.8079L24.5038 14.8045H24.5008L24.4042 14.8079C17.4438 14.8079 13.3699 19.1653 13.3699 23.2694L13.3851 32.9799C13.3851 32.9799 10.4002 32.6055 6.48946 30.9675C2.03555 29.1034 0.657142 27.8945 0.657142 27.8945C0.987401 20.106 11.6205 13.6886 24.504 13.6836C37.3865 13.6886 48.0198 20.106 48.3484 27.8945Z" fill="white"/>
</svg>
