<svg width="128" height="28" viewBox="0 0 128 28" fill="none" xmlns="http://www.w3.org/2000/svg">
<path d="M36.3984 21.817V7.53906H41.7243C42.9142 7.53906 43.9907 7.70904 44.8406 8.10565C45.6905 8.50226 46.3704 9.06885 46.8236 9.80541C47.2769 10.542 47.5035 11.3919 47.5035 12.4684C47.5035 13.4882 47.2769 14.3381 46.8236 15.0747C46.3704 15.8112 45.6905 16.3778 44.8406 16.7744C43.9907 17.171 42.9142 17.341 41.7243 17.341H37.1917L37.8715 16.6044V21.817H36.3984ZM37.9282 16.7178L37.2483 15.9812H41.7243C43.1408 15.9812 44.2173 15.6979 44.9539 15.0747C45.6904 14.4514 46.0871 13.6015 46.0871 12.4684C46.0871 11.3352 45.6904 10.4287 44.9539 9.80541C44.2173 9.18216 43.1408 8.84221 41.7243 8.84221H37.2483L37.9282 8.10565V16.7178Z" fill="black"/>
<path d="M55.0955 21.9292C54.0756 21.9292 53.1124 21.7026 52.3192 21.2493C51.526 20.7961 50.8461 20.1162 50.3928 19.3229C49.9395 18.4731 49.6562 17.5665 49.6562 16.49C49.6562 15.4135 49.8829 14.4503 50.3928 13.6571C50.9027 12.8639 51.526 12.184 52.3192 11.7307C53.1124 11.2774 54.0756 11.0508 55.0955 11.0508C56.172 11.0508 57.0785 11.2774 57.9284 11.7307C58.7783 12.184 59.4015 12.8639 59.8548 13.6571C60.3081 14.4503 60.5347 15.4135 60.5347 16.49C60.5347 17.5665 60.3081 18.4731 59.8548 19.3229C59.4015 20.1728 58.7216 20.7961 57.9284 21.2493C57.1352 21.7026 56.172 21.9292 55.0955 21.9292ZM55.0955 20.6261C55.8887 20.6261 56.5686 20.4561 57.1352 20.1162C57.7584 19.7762 58.2117 19.2663 58.5516 18.643C58.8916 18.0198 59.0616 17.2832 59.0616 16.4334C59.0616 15.5835 58.8916 14.8469 58.5516 14.2237C58.2117 13.6004 57.7584 13.0905 57.1352 12.7505C56.5119 12.4106 55.832 12.2406 55.0955 12.2406C54.3589 12.2406 53.679 12.4106 53.0558 12.7505C52.4325 13.0905 51.9793 13.6004 51.6393 14.2237C51.2994 14.8469 51.1294 15.5835 51.1294 16.4334C51.1294 17.2832 51.2994 18.0198 51.6393 18.643C51.9793 19.2663 52.4892 19.7762 53.0558 20.1162C53.679 20.4561 54.3589 20.6261 55.0955 20.6261Z" fill="black"/>
<path d="M63.5391 21.814V11.1055H64.8989V13.9951L64.7289 13.4852C65.0122 12.6919 65.5221 12.0687 66.2587 11.6154C66.9386 11.1622 67.8451 10.9922 68.865 10.9922V12.4087C68.8083 12.4087 68.7517 12.4087 68.695 12.4087C68.6383 12.4087 68.5817 12.4087 68.525 12.4087C67.3918 12.4087 66.4853 12.7486 65.8621 13.4285C65.2388 14.1084 64.8989 15.0716 64.8989 16.3748V21.814H63.5391Z" fill="black"/>
<path d="M70.0547 12.3546V11.1082H76.6837V12.298H70.0547V12.3546ZM75.0973 21.93C74.0774 21.93 73.3409 21.6467 72.7743 21.1367C72.2077 20.6268 71.9811 19.8336 71.9811 18.8137V8.78516H73.4542V18.7571C73.4542 19.3803 73.6242 19.8903 73.9075 20.2302C74.2474 20.5702 74.7007 20.7401 75.2673 20.7401C75.8905 20.7401 76.4571 20.5702 76.8537 20.1735L77.3637 21.1934C77.0804 21.4767 76.7404 21.6467 76.3438 21.76C75.9472 21.8733 75.5506 21.93 75.0973 21.93Z" fill="black"/>
<path d="M80.3086 21.817V7.53906H85.6345C86.8243 7.53906 87.9009 7.70904 88.7507 8.10565C89.6006 8.50226 90.2805 9.06885 90.7338 9.80541C91.1871 10.542 91.4137 11.3919 91.4137 12.4684C91.4137 13.4882 91.1871 14.3381 90.7338 15.0747C90.2805 15.8112 89.6006 16.3778 88.7507 16.7744C87.9009 17.171 86.8243 17.341 85.6345 17.341H81.1018L81.7817 16.6044V21.817H80.3086ZM81.8384 16.7178L81.1585 15.9812H85.6345C87.051 15.9812 88.1275 15.6979 88.864 15.0747C89.6006 14.4514 89.9972 13.6015 89.9972 12.4684C89.9972 11.3352 89.6006 10.4287 88.864 9.80541C88.1275 9.18216 87.051 8.84221 85.6345 8.84221H81.1585L81.8384 8.10565V16.7178Z" fill="black"/>
<path d="M94.6426 21.8154V6.6875H96.1157V21.8154H94.6426Z" fill="black"/>
<path d="M103.144 21.9293C102.351 21.9293 101.671 21.816 101.047 21.5327C100.481 21.2494 100.028 20.9094 99.6876 20.4562C99.3477 20.0029 99.2344 19.4363 99.2344 18.8131C99.2344 18.2465 99.3477 17.7365 99.631 17.2833C99.9143 16.83 100.311 16.4334 100.934 16.2068C101.557 15.9235 102.351 15.8101 103.37 15.8101H107.053V16.8867H103.427C102.407 16.8867 101.671 17.0566 101.274 17.4532C100.877 17.7932 100.651 18.3031 100.651 18.8131C100.651 19.4363 100.877 19.8896 101.387 20.2862C101.897 20.6828 102.521 20.8528 103.37 20.8528C104.164 20.8528 104.9 20.6828 105.467 20.2862C106.033 19.8896 106.487 19.3796 106.77 18.6431L107.11 19.6063C106.827 20.2862 106.373 20.8528 105.693 21.306C105.014 21.7026 104.164 21.9293 103.144 21.9293ZM106.827 21.816V19.4363L106.77 19.0397V15.0736C106.77 14.167 106.543 13.4871 106.033 12.9772C105.523 12.4673 104.787 12.2407 103.767 12.2407C103.087 12.2407 102.407 12.354 101.784 12.5806C101.161 12.8072 100.651 13.0905 100.198 13.4871L99.5177 12.4106C100.084 11.9574 100.708 11.6174 101.501 11.3341C102.237 11.1075 103.087 10.9375 103.88 10.9375C105.24 10.9375 106.317 11.2775 107.11 11.9574C107.846 12.6373 108.243 13.7138 108.243 15.0736V21.7026H106.827V21.816Z" fill="black"/>
<path d="M112.887 8.7858C112.604 8.7858 112.32 8.67249 112.15 8.50251C111.924 8.27588 111.867 8.04924 111.867 7.76595C111.867 7.48265 111.981 7.25602 112.15 7.02939C112.377 6.85941 112.604 6.74609 112.887 6.74609C113.17 6.74609 113.454 6.85941 113.624 7.02939C113.85 7.19936 113.907 7.48265 113.907 7.76595C113.907 8.04924 113.794 8.33254 113.624 8.50251C113.454 8.67249 113.227 8.7858 112.887 8.7858ZM112.15 21.8173V11.1088H113.624V21.8173H112.15Z" fill="black"/>
<path d="M121.896 21.9287C120.876 21.9287 119.97 21.702 119.177 21.2488C118.383 20.7955 117.76 20.1723 117.25 19.3224C116.797 18.4725 116.57 17.566 116.57 16.4894C116.57 15.4129 116.797 14.4497 117.25 13.6565C117.703 12.8633 118.327 12.1834 119.177 11.7301C119.97 11.2769 120.876 11.0502 121.896 11.0502C122.859 11.0502 123.653 11.2769 124.389 11.6735C125.126 12.0701 125.749 12.6933 126.146 13.5432C126.599 14.3364 126.826 15.3563 126.826 16.4894C126.826 17.6226 126.599 18.6425 126.146 19.4357C125.692 20.2289 125.126 20.8522 124.389 21.3054C123.709 21.702 122.859 21.9287 121.896 21.9287ZM122.01 20.6255C122.746 20.6255 123.426 20.4556 124.049 20.1156C124.672 19.7757 125.126 19.2657 125.466 18.6425C125.806 18.0192 125.976 17.2827 125.976 16.4328C125.976 15.5829 125.806 14.8463 125.466 14.2231C125.126 13.5999 124.616 13.0899 124.049 12.75C123.426 12.41 122.746 12.24 122.01 12.24C121.273 12.24 120.593 12.41 119.97 12.75C119.347 13.0899 118.893 13.5999 118.553 14.2231C118.213 14.8463 118.043 15.5829 118.043 16.4328C118.043 17.2827 118.213 18.0192 118.553 18.6425C118.893 19.2657 119.403 19.7757 119.97 20.1156C120.593 20.4556 121.273 20.6255 122.01 20.6255ZM126.032 21.8154V18.5858L126.202 16.4328L125.976 14.2798V6.6875H127.449V21.8154H126.032Z" fill="black"/>
<path d="M8.13899 16.3213H3.6063V26.3499H1V1.02344H7.11915C11.5952 1.02344 14.5981 2.89317 14.5981 8.44572V11.392M6.83585 13.715C10.3487 13.715 12.0484 12.0719 12.0484 8.50238C12.0484 4.87622 10.3487 3.68639 6.83585 3.68639H3.6063V13.715H6.83585Z" stroke="black" stroke-width="0.75" stroke-miterlimit="10"/>
<path d="M14.3712 11.4505H18.7906V1.30859H21.3969V26.975H15.2778C10.8017 26.975 7.79883 25.0486 7.79883 19.4394C7.79883 18.1362 7.85549 17.2297 7.85549 16.2665M15.6177 14.1134C12.1049 14.1134 10.4051 15.7566 10.4051 19.3827C10.4051 23.0655 12.1049 24.2553 15.6177 24.2553H18.7906V14.1134H15.6177Z" stroke="black" stroke-width="0.75" stroke-miterlimit="10"/>
</svg>
