<svg width="45" height="17" viewBox="0 0 45 17" fill="none" xmlns="http://www.w3.org/2000/svg">
<path fill-rule="evenodd" clip-rule="evenodd" d="M5.65089 1.2248C2.78024 4.59603 0.0278237 8.77665 0.000224077 11.9015C-0.0105253 13.0773 0.36483 14.1037 1.26516 14.8811C2.56089 16.0008 3.98852 16.3956 5.40918 16.3979C7.48525 16.4008 9.5468 15.5633 11.1609 14.9174C13.8794 13.8303 43.929 0.780886 43.929 0.780886C44.2189 0.635624 44.1646 0.45463 43.8018 0.544982C43.6553 0.581588 11.088 9.40738 11.088 9.40738C10.4711 9.58185 9.83371 9.6731 9.19265 9.67873C6.6898 9.69354 4.46265 8.30426 4.48067 5.37667C4.48764 4.23113 4.8383 2.8497 5.65089 1.2248Z" fill="#212121"/>
</svg>
