<svg width="25" height="24" viewBox="0 0 25 24" fill="none" xmlns="http://www.w3.org/2000/svg">
<rect width="23.6896" height="24" transform="translate(0.870605)" fill="#212121"/>
<path d="M22.8706 12C22.8706 17.5228 18.3935 22 12.8706 22C7.34776 22 2.87061 17.5228 2.87061 12C2.87061 6.47715 7.34776 2 12.8706 2C18.3935 2 22.8706 6.47715 22.8706 12Z" fill="#FFC700"/>
<path d="M7.87061 14C8.53727 15.2857 10.4706 17 12.8706 17C15.2706 17 17.2039 15.2857 17.8706 14M22.8706 12C22.8706 17.5228 18.3935 22 12.8706 22C7.34776 22 2.87061 17.5228 2.87061 12C2.87061 6.47715 7.34776 2 12.8706 2C18.3935 2 22.8706 6.47715 22.8706 12Z" stroke="#191D1E" stroke-width="1.5" stroke-linecap="round"/>
<path d="M10.8706 8C10.8706 8.55228 10.4229 9 9.87061 9C9.31832 9 8.87061 8.55228 8.87061 8C8.87061 7.44772 9.31832 7 9.87061 7C10.4229 7 10.8706 7.44772 10.8706 8Z" fill="#191D1E"/>
<path d="M16.8706 8C16.8706 8.55228 16.4229 9 15.8706 9C15.3183 9 14.8706 8.55228 14.8706 8C14.8706 7.44772 15.3183 7 15.8706 7C16.4229 7 16.8706 7.44772 16.8706 8Z" fill="#191D1E"/>
</svg>
