<svg width="25" height="24" viewBox="0 0 25 24" fill="none" xmlns="http://www.w3.org/2000/svg">
<path d="M9.27563 20.5L11.9483 15.7714C12.078 15.5419 12.1919 15.3404 12.2938 15.1622M12.2938 15.1622C12.6097 14.6097 12.8107 14.2806 13.0114 14.0336C14.6734 11.9885 17.6375 11.5845 19.7863 13.1101C20.1272 13.3522 20.5065 13.7309 21.2606 14.485M12.2938 15.1622L11.7756 15C10.5801 14.7609 9.98235 14.6413 9.43372 14.653C7.96548 14.6842 6.58519 15.3593 5.65917 16.4991C5.31315 16.925 5.04053 17.4702 4.49528 18.5607L4.38546 18.7804L4.26438 18.9849M21.2606 14.485C21.2756 13.7605 21.2756 12.939 21.2756 12C21.2756 8.25027 21.2756 6.3754 20.3207 5.06107C20.0123 4.6366 19.639 4.26331 19.2146 3.95491C17.9002 3 16.0254 3 12.2756 3C8.5259 3 6.65104 3 5.33671 3.95491C4.91223 4.26331 4.53895 4.6366 4.23055 5.06107C3.27563 6.3754 3.27563 8.25027 3.27563 12C3.27563 15.7497 3.27563 17.6246 4.23055 18.9389C4.24174 18.9543 4.25302 18.9697 4.26438 18.9849M21.2606 14.485C21.2157 16.6536 21.0365 17.9537 20.3207 18.9389C20.0123 19.3634 19.639 19.7367 19.2146 20.0451C17.9002 21 16.0254 21 12.2756 21C8.5259 21 6.65104 21 5.33671 20.0451C4.92764 19.7479 4.56611 19.3904 4.26438 18.9849M9.27563 9C9.27563 10.1046 10.1711 11 11.2756 11C12.3802 11 13.2756 10.1046 13.2756 9C13.2756 7.89543 12.3802 7 11.2756 7C10.1711 7 9.27563 7.89543 9.27563 9Z" stroke="white" stroke-width="1.5" stroke-linecap="round"/>
</svg>
