<svg width="25" height="24" viewBox="0 0 25 24" fill="none" xmlns="http://www.w3.org/2000/svg">
<path d="M13.0256 8.00284C13.0256 7.58863 12.6898 7.25284 12.2756 7.25284C11.8614 7.25284 11.5256 7.58863 11.5256 8.00284H13.0256ZM11.5256 16.0028C11.5256 16.4171 11.8614 16.7528 12.2756 16.7528C12.6898 16.7528 13.0256 16.4171 13.0256 16.0028H11.5256ZM16.0256 9.00284C16.0256 8.58863 15.6898 8.25284 15.2756 8.25284C14.8614 8.25284 14.5256 8.58863 14.5256 9.00284H16.0256ZM14.5256 15.0028C14.5256 15.4171 14.8614 15.7528 15.2756 15.7528C15.6898 15.7528 16.0256 15.4171 16.0256 15.0028H14.5256ZM19.0256 11.0028C19.0256 10.5886 18.6898 10.2528 18.2756 10.2528C17.8614 10.2528 17.5256 10.5886 17.5256 11.0028H19.0256ZM17.5256 13.0028C17.5256 13.4171 17.8614 13.7528 18.2756 13.7528C18.6898 13.7528 19.0256 13.4171 19.0256 13.0028H17.5256ZM10.0256 9.00284C10.0256 8.58863 9.68978 8.25284 9.27557 8.25284C8.86136 8.25284 8.52557 8.58863 8.52557 9.00284L10.0256 9.00284ZM8.52557 15.0028C8.52557 15.4171 8.86136 15.7528 9.27557 15.7528C9.68978 15.7528 10.0256 15.4171 10.0256 15.0028L8.52557 15.0028ZM7.02557 11.0028C7.02557 10.5886 6.68978 10.2528 6.27557 10.2528C5.86136 10.2528 5.52557 10.5886 5.52557 11.0028L7.02557 11.0028ZM5.52557 13.0028C5.52557 13.4171 5.86136 13.7528 6.27557 13.7528C6.68978 13.7528 7.02557 13.4171 7.02557 13.0028L5.52557 13.0028ZM17.171 3.02779L17.5134 2.36048L17.5134 2.36048L17.171 3.02779ZM17.6005 3.27573L17.1937 3.90586L17.1937 3.90586L17.6005 3.27573ZM6.95068 3.27573L6.54393 2.64561L6.95068 3.27573ZM7.38012 3.02779L7.03779 2.36048L7.03779 2.36048L7.38012 3.02779ZM2.05522 12.2508L2.8043 12.2136L2.05522 12.2508ZM2.05522 11.7549L1.30615 11.7177L2.05522 11.7549ZM7.38012 20.9779L7.03779 21.6452L7.03779 21.6452L7.38012 20.9779ZM6.95068 20.73L7.35742 20.0998L7.35742 20.0998L6.95068 20.73ZM17.6005 20.73L18.0072 21.3601L17.6005 20.73ZM17.171 20.9779L17.5134 21.6452L17.5134 21.6452L17.171 20.9779ZM22.4959 12.2508L23.245 12.288L22.4959 12.2508ZM22.4959 11.7549L21.7468 11.7921L22.4959 11.7549ZM11.5256 8.00284V16.0028H13.0256V8.00284H11.5256ZM14.5256 9.00284V15.0028H16.0256V9.00284H14.5256ZM17.5256 11.0028V13.0028H19.0256V11.0028H17.5256ZM8.52557 9.00284L8.52557 15.0028L10.0256 15.0028L10.0256 9.00284L8.52557 9.00284ZM5.52557 11.0028L5.52557 13.0028L7.02557 13.0028L7.02557 11.0028L5.52557 11.0028ZM12.2756 3.22656C13.5624 3.22656 14.4787 3.22725 15.2088 3.29249C15.9246 3.35645 16.4075 3.47903 16.8287 3.69511L17.5134 2.36048C16.86 2.02533 16.1688 1.87229 15.3423 1.79844C14.5302 1.72587 13.5361 1.72656 12.2756 1.72656L12.2756 3.22656ZM21.1751 6.8647C20.5448 5.77308 20.0484 4.91181 19.5795 4.24475C19.1023 3.56594 18.6241 3.04382 18.0072 2.64561L17.1937 3.90586C17.5915 4.1626 17.939 4.51946 18.3523 5.10739C18.7739 5.70707 19.2327 6.50031 19.8761 7.6147L21.1751 6.8647ZM16.8287 3.69511C16.9538 3.75928 17.0756 3.82961 17.1937 3.90586L18.0072 2.64561C17.8474 2.54245 17.6826 2.4473 17.5134 2.36048L16.8287 3.69511ZM4.67509 7.6147C5.31848 6.50031 5.77725 5.70707 6.19881 5.10739C6.61211 4.51946 6.95968 4.1626 7.35742 3.90586L6.54393 2.64561C5.92703 3.04382 5.44886 3.56594 4.97168 4.24475C4.50276 4.91181 4.0063 5.77308 3.37605 6.8647L4.67509 7.6147ZM12.2756 1.72656C11.0151 1.72656 10.021 1.72587 9.20881 1.79844C8.38236 1.87229 7.6911 2.02533 7.03779 2.36048L7.72245 3.69511C8.14367 3.47903 8.6265 3.35645 9.34231 3.29249C10.0724 3.22725 10.9888 3.22656 12.2756 3.22656L12.2756 1.72656ZM7.35742 3.90586C7.47554 3.82961 7.59736 3.75928 7.72245 3.69511L7.03779 2.36048C6.86855 2.44729 6.70373 2.54245 6.54393 2.64561L7.35742 3.90586ZM4.67509 16.391C4.03169 15.2766 3.57412 14.4827 3.26555 13.8177C2.96304 13.1658 2.82778 12.6864 2.8043 12.2136L1.30615 12.288C1.34256 13.0213 1.55565 13.6965 1.90492 14.4492C2.24815 15.1888 2.7458 16.0494 3.37605 17.141L4.67509 16.391ZM3.37605 6.8647C2.7458 7.95632 2.24815 8.8169 1.90492 9.55653C1.55565 10.3092 1.34256 10.9844 1.30615 11.7177L2.8043 11.7921C2.82778 11.3193 2.96304 10.8398 3.26555 10.1879C3.57412 9.52302 4.03169 8.72909 4.67509 7.6147L3.37605 6.8647ZM2.8043 12.2136C2.79733 12.0732 2.79733 11.9325 2.8043 11.7921L1.30615 11.7177C1.29671 11.9077 1.29671 12.098 1.30615 12.288L2.8043 12.2136ZM12.2756 20.7791C10.9888 20.7791 10.0724 20.7784 9.34231 20.7132C8.62649 20.6492 8.14366 20.5267 7.72245 20.3106L7.03779 21.6452C7.6911 21.9804 8.38235 22.1334 9.20881 22.2072C10.021 22.2798 11.0151 22.2791 12.2756 22.2791L12.2756 20.7791ZM3.37605 17.141C4.0063 18.2326 4.50276 19.0939 4.97168 19.7609C5.44886 20.4397 5.92703 20.9619 6.54393 21.3601L7.35742 20.0998C6.95968 19.8431 6.61211 19.4862 6.19881 18.8983C5.77725 18.2986 5.31848 17.5054 4.67509 16.391L3.37605 17.141ZM7.72245 20.3106C7.59736 20.2464 7.47554 20.1761 7.35742 20.0998L6.54393 21.3601C6.70373 21.4632 6.86855 21.5584 7.03779 21.6452L7.72245 20.3106ZM19.8761 16.391C19.2327 17.5054 18.7739 18.2986 18.3523 18.8983C17.939 19.4862 17.5915 19.8431 17.1937 20.0998L18.0072 21.3601C18.6241 20.9619 19.1023 20.4397 19.5795 19.7609C20.0484 19.0939 20.5448 18.2326 21.1751 17.141L19.8761 16.391ZM12.2756 22.2791C13.5361 22.2791 14.5302 22.2798 15.3423 22.2072C16.1688 22.1334 16.86 21.9804 17.5134 21.6452L16.8287 20.3106C16.4075 20.5267 15.9246 20.6492 15.2088 20.7132C14.4787 20.7784 13.5624 20.7791 12.2756 20.7791L12.2756 22.2791ZM17.1937 20.0998C17.0756 20.1761 16.9538 20.2464 16.8287 20.3106L17.5134 21.6452C17.6826 21.5584 17.8474 21.4632 18.0072 21.3601L17.1937 20.0998ZM21.1751 17.141C21.8053 16.0494 22.303 15.1888 22.6462 14.4492C22.9955 13.6965 23.2086 13.0213 23.245 12.288L21.7468 12.2136C21.7234 12.6864 21.5881 13.1658 21.2856 13.8177C20.977 14.4827 20.5194 15.2766 19.8761 16.391L21.1751 17.141ZM19.8761 7.6147C20.5194 8.72909 20.977 9.52302 21.2856 10.1879C21.5881 10.8398 21.7234 11.3193 21.7468 11.7921L23.245 11.7177C23.2086 10.9844 22.9955 10.3092 22.6462 9.55653C22.303 8.8169 21.8053 7.95632 21.1751 6.8647L19.8761 7.6147ZM23.245 12.288C23.2544 12.098 23.2544 11.9077 23.245 11.7177L21.7468 11.7921C21.7538 11.9325 21.7538 12.0732 21.7468 12.2136L23.245 12.288Z" fill="white"/>
</svg>
