<svg width="25" height="24" viewBox="0 0 25 24" fill="none" xmlns="http://www.w3.org/2000/svg">
<path d="M8.27563 17.75C8.68985 17.75 9.02563 17.4142 9.02563 17C9.02563 16.5858 8.68985 16.25 8.27563 16.25V17.75ZM16.2756 16.25C15.8614 16.25 15.5256 16.5858 15.5256 17C15.5256 17.4142 15.8614 17.75 16.2756 17.75V16.25ZM16.2756 6.25C15.8614 6.25 15.5256 6.58579 15.5256 7C15.5256 7.41421 15.8614 7.75 16.2756 7.75V6.25ZM8.27563 7.75C8.68985 7.75 9.02563 7.41421 9.02563 7C9.02563 6.58579 8.68985 6.25 8.27563 6.25V7.75ZM8.27563 11.25C7.86142 11.25 7.52563 11.5858 7.52563 12C7.52563 12.4142 7.86142 12.75 8.27563 12.75V11.25ZM16.2756 12.75C16.6898 12.75 17.0256 12.4142 17.0256 12C17.0256 11.5858 16.6898 11.25 16.2756 11.25V12.75ZM8.27563 16.25C5.92842 16.25 4.02563 14.3472 4.02563 12H2.52563C2.52563 15.1756 5.1 17.75 8.27563 17.75V16.25ZM20.5256 12C20.5256 14.3472 18.6228 16.25 16.2756 16.25V17.75C19.4513 17.75 22.0256 15.1756 22.0256 12H20.5256ZM16.2756 7.75C18.6228 7.75 20.5256 9.65279 20.5256 12H22.0256C22.0256 8.82436 19.4513 6.25 16.2756 6.25V7.75ZM8.27563 6.25C5.1 6.25 2.52563 8.82436 2.52563 12H4.02563C4.02563 9.65279 5.92842 7.75 8.27563 7.75V6.25ZM8.27563 12.75H16.2756V11.25H8.27563V12.75Z" fill="white"/>
</svg>
