<svg width="18" height="20" viewBox="0 0 18 20" fill="none" xmlns="http://www.w3.org/2000/svg">
<path d="M6.96144 15.8562L9.02872 12.1987C9.12904 12.0212 9.21713 11.8654 9.29596 11.7275M9.29596 11.7275C9.5403 11.3002 9.69572 11.0456 9.85098 10.8546C11.1365 9.27275 13.4292 8.96024 15.0912 10.1403C15.3549 10.3276 15.6483 10.6204 16.2316 11.2037M9.29596 11.7275L8.89514 11.6021C7.97043 11.4171 7.50807 11.3247 7.08372 11.3337C5.94806 11.3578 4.88043 11.88 4.16418 12.7616C3.89653 13.091 3.68567 13.5127 3.26393 14.3562L3.17898 14.5261L3.08533 14.6844M16.2316 11.2037C16.2432 10.6433 16.2432 10.008 16.2432 9.28164C16.2432 6.38129 16.2432 4.93112 15.5046 3.91451C15.2661 3.58619 14.9773 3.29746 14.649 3.05892C13.6324 2.32031 12.1822 2.32031 9.28188 2.32031C6.38154 2.32031 4.93136 2.32031 3.91476 3.05892C3.58644 3.29746 3.2977 3.58619 3.05916 3.91451C2.32056 4.93112 2.32056 6.38129 2.32056 9.28164C2.32056 12.182 2.32056 13.6322 3.05916 14.6488C3.06782 14.6607 3.07654 14.6725 3.08533 14.6844M16.2316 11.2037C16.1969 12.8811 16.0582 13.8867 15.5046 14.6488C15.2661 14.9771 14.9773 15.2658 14.649 15.5044C13.6324 16.243 12.1822 16.243 9.28188 16.243C6.38154 16.243 4.93136 16.243 3.91476 15.5044C3.59835 15.2745 3.31871 14.998 3.08533 14.6844M6.96144 6.9612C6.96144 7.81556 7.65404 8.50816 8.5084 8.50816C9.36277 8.50816 10.0554 7.81556 10.0554 6.9612C10.0554 6.10683 9.36277 5.41424 8.5084 5.41424C7.65404 5.41424 6.96144 6.10683 6.96144 6.9612Z" stroke="#212121" stroke-width="1.16022" stroke-linecap="round"/>
</svg>
