<svg width="25" height="24" viewBox="0 0 25 24" fill="none" xmlns="http://www.w3.org/2000/svg">
<path d="M13.9084 14.5219L14.8574 10.9802C15.3816 9.02413 14.2208 7.01356 12.2647 6.48944C10.3087 5.96532 8.29811 7.12612 7.77399 9.08216L5.40148 17.9365C4.87736 19.8925 6.03817 21.9031 7.99421 22.4272C8.89243 22.6679 9.80215 22.5533 10.5742 22.1695C11.0479 21.934 11.4698 21.5971 11.8054 21.1788M11.3157 10.0312L10.3667 13.5729C9.8426 15.5289 11.0034 17.5395 12.9594 18.0636C14.9155 18.5877 16.9261 17.4269 17.4502 15.4709L19.8227 6.61658C20.3468 4.66054 19.186 2.64997 17.23 2.12585C16.3317 1.88517 15.422 1.99979 14.65 2.38356C14.1762 2.61907 13.7543 2.95595 13.4188 3.37429" stroke="white" stroke-width="1.5" stroke-linecap="round"/>
</svg>
