<svg width="343" height="295" viewBox="0 0 343 295" fill="none" xmlns="http://www.w3.org/2000/svg">
<rect width="343" height="295" rx="12" fill="white"/>
<rect x="19" y="19" width="305" height="39" rx="9" fill="#E4E4E4"/>
<rect x="19" y="74" width="185" height="68" rx="9" fill="#E4E4E4"/>
<rect x="19" y="152" width="185" height="68" rx="9" fill="#E4E4E4"/>
<rect x="218" y="74" width="106" height="106" rx="9" fill="#E4E4E4"/>
<rect x="218" y="190" width="106" height="30" rx="9" fill="#5137C3"/>
<path d="M247.629 209.1C247.083 209.1 246.579 209.01 246.119 208.83C245.659 208.65 245.259 208.4 244.919 208.08C244.579 207.753 244.316 207.373 244.129 206.94C243.943 206.5 243.849 206.02 243.849 205.5C243.849 204.98 243.943 204.503 244.129 204.07C244.316 203.63 244.579 203.25 244.919 202.93C245.259 202.603 245.659 202.35 246.119 202.17C246.579 201.99 247.079 201.9 247.619 201.9C248.166 201.9 248.666 201.99 249.119 202.17C249.579 202.35 249.979 202.603 250.319 202.93C250.659 203.25 250.923 203.63 251.109 204.07C251.296 204.503 251.389 204.98 251.389 205.5C251.389 206.02 251.296 206.5 251.109 206.94C250.923 207.38 250.659 207.76 250.319 208.08C249.979 208.4 249.579 208.65 249.119 208.83C248.666 209.01 248.169 209.1 247.629 209.1ZM247.619 207.96C247.973 207.96 248.299 207.9 248.599 207.78C248.899 207.66 249.159 207.49 249.379 207.27C249.599 207.043 249.769 206.783 249.889 206.49C250.016 206.19 250.079 205.86 250.079 205.5C250.079 205.14 250.016 204.813 249.889 204.52C249.769 204.22 249.599 203.96 249.379 203.74C249.159 203.513 248.899 203.34 248.599 203.22C248.299 203.1 247.973 203.04 247.619 203.04C247.266 203.04 246.939 203.1 246.639 203.22C246.346 203.34 246.086 203.513 245.859 203.74C245.639 203.96 245.466 204.22 245.339 204.52C245.219 204.813 245.159 205.14 245.159 205.5C245.159 205.853 245.219 206.18 245.339 206.48C245.466 206.78 245.639 207.043 245.859 207.27C246.079 207.49 246.339 207.66 246.639 207.78C246.939 207.9 247.266 207.96 247.619 207.96ZM256.077 209.1C256.07 209.1 256.04 209.1 255.987 209.1C255.94 209.1 255.893 209.1 255.847 209.1C255.807 209.1 255.78 209.1 255.767 209.1C254.64 209.087 253.767 208.843 253.147 208.37C252.527 207.89 252.217 207.207 252.217 206.32C252.217 205.44 252.527 204.767 253.147 204.3C253.767 203.833 254.65 203.593 255.797 203.58C255.81 203.58 255.837 203.58 255.877 203.58C255.923 203.58 255.967 203.58 256.007 203.58C256.053 203.58 256.08 203.58 256.087 203.58C257.24 203.58 258.137 203.817 258.777 204.29C259.423 204.757 259.747 205.433 259.747 206.32C259.747 207.213 259.423 207.9 258.777 208.38C258.137 208.86 257.237 209.1 256.077 209.1ZM256.037 208.06C256.603 208.06 257.07 207.997 257.437 207.87C257.803 207.737 258.077 207.543 258.257 207.29C258.437 207.03 258.527 206.707 258.527 206.32C258.527 205.94 258.437 205.627 258.257 205.38C258.077 205.127 257.803 204.94 257.437 204.82C257.07 204.693 256.603 204.63 256.037 204.63C256.023 204.63 255.99 204.63 255.937 204.63C255.89 204.63 255.86 204.63 255.847 204.63C255.293 204.63 254.84 204.697 254.487 204.83C254.133 204.957 253.87 205.143 253.697 205.39C253.53 205.637 253.447 205.947 253.447 206.32C253.447 206.7 253.53 207.017 253.697 207.27C253.87 207.523 254.133 207.717 254.487 207.85C254.847 207.983 255.3 208.053 255.847 208.06C255.86 208.06 255.89 208.06 255.937 208.06C255.99 208.06 256.023 208.06 256.037 208.06ZM255.387 210.94V201.58H256.567V210.94H255.387ZM263.338 209.07C262.791 209.07 262.305 208.953 261.878 208.72C261.451 208.48 261.115 208.153 260.868 207.74C260.621 207.327 260.498 206.857 260.498 206.33C260.498 205.797 260.621 205.327 260.868 204.92C261.115 204.507 261.451 204.183 261.878 203.95C262.305 203.717 262.791 203.6 263.338 203.6C263.891 203.6 264.381 203.717 264.808 203.95C265.241 204.183 265.578 204.503 265.818 204.91C266.065 205.317 266.188 205.79 266.188 206.33C266.188 206.857 266.065 207.327 265.818 207.74C265.578 208.153 265.241 208.48 264.808 208.72C264.381 208.953 263.891 209.07 263.338 209.07ZM263.338 208C263.645 208 263.918 207.933 264.158 207.8C264.398 207.667 264.585 207.473 264.718 207.22C264.858 206.967 264.928 206.67 264.928 206.33C264.928 205.983 264.858 205.687 264.718 205.44C264.585 205.187 264.398 204.993 264.158 204.86C263.918 204.727 263.648 204.66 263.348 204.66C263.041 204.66 262.768 204.727 262.528 204.86C262.295 204.993 262.108 205.187 261.968 205.44C261.828 205.687 261.758 205.983 261.758 206.33C261.758 206.67 261.828 206.967 261.968 207.22C262.108 207.473 262.295 207.667 262.528 207.8C262.768 207.933 263.038 208 263.338 208ZM270.383 209.07C269.95 209.07 269.553 208.97 269.193 208.77C268.84 208.57 268.556 208.27 268.343 207.87C268.136 207.463 268.033 206.95 268.033 206.33C268.033 205.703 268.133 205.19 268.333 204.79C268.54 204.39 268.82 204.093 269.173 203.9C269.526 203.7 269.93 203.6 270.383 203.6C270.91 203.6 271.373 203.713 271.773 203.94C272.18 204.167 272.5 204.483 272.733 204.89C272.973 205.297 273.093 205.777 273.093 206.33C273.093 206.883 272.973 207.367 272.733 207.78C272.5 208.187 272.18 208.503 271.773 208.73C271.373 208.957 270.91 209.07 270.383 209.07ZM267.423 210.94V203.66H268.613V204.92L268.573 206.34L268.673 207.76V210.94H267.423ZM270.243 208C270.543 208 270.81 207.933 271.043 207.8C271.283 207.667 271.473 207.473 271.613 207.22C271.753 206.967 271.823 206.67 271.823 206.33C271.823 205.983 271.753 205.687 271.613 205.44C271.473 205.187 271.283 204.993 271.043 204.86C270.81 204.727 270.543 204.66 270.243 204.66C269.943 204.66 269.673 204.727 269.433 204.86C269.193 204.993 269.003 205.187 268.863 205.44C268.723 205.687 268.653 205.983 268.653 206.33C268.653 206.67 268.723 206.967 268.863 207.22C269.003 207.473 269.193 207.667 269.433 207.8C269.673 207.933 269.943 208 270.243 208ZM274.337 209V203.66H275.647L277.797 207.45H277.277L279.537 203.66H280.707L280.717 209H279.587V205L279.787 205.13L277.787 208.44H277.247L275.237 205.04L275.477 204.98V209H274.337ZM282.394 209V203.66H283.644V207.18L286.594 203.66H287.734V209H286.484V205.48L283.544 209H282.394ZM290.525 209V204.42L290.815 204.72H288.645V203.66H293.645V204.72H291.485L291.775 204.42V209H290.525ZM297.232 205.42C297.919 205.42 298.442 205.573 298.802 205.88C299.162 206.187 299.342 206.62 299.342 207.18C299.342 207.76 299.142 208.213 298.742 208.54C298.342 208.86 297.779 209.017 297.052 209.01L294.552 209V203.66H295.802V205.41L297.232 205.42ZM296.942 208.09C297.309 208.097 297.589 208.02 297.782 207.86C297.975 207.7 298.072 207.467 298.072 207.16C298.072 206.853 297.975 206.633 297.782 206.5C297.595 206.36 297.315 206.287 296.942 206.28L295.802 206.27V208.08L296.942 208.09Z" fill="white"/>
<rect x="19" y="236" width="305" height="40" rx="9" fill="#E4E4E4"/>
<g clip-path="url(#clip0_616_20635)">
<path d="M318.583 211.625V210M314.316 213.316L313.167 212.167M314.316 221.917L313.167 223.066M322.917 213.316L324.066 212.167M312.625 217.583H311M318.042 217.042L322.495 230.884L325.625 227.755L329.537 231.667L332.667 228.537L328.755 224.625L331.884 221.495L318.042 217.042Z" stroke="#212121" stroke-width="2.16667" stroke-linecap="round" stroke-linejoin="round"/>
</g>
<defs>
<clipPath id="clip0_616_20635">
<rect width="26" height="26" fill="white" transform="translate(307 206)"/>
</clipPath>
</defs>
</svg>
