<svg width="343" height="300" viewBox="0 0 343 300" fill="none" xmlns="http://www.w3.org/2000/svg">
<rect width="343" height="300" rx="12" fill="white"/>
<rect x="19" y="19" width="305" height="39" rx="9" fill="#5137C3"/>
<rect x="19" y="74" width="91" height="151" rx="9" fill="#E4E4E4"/>
<rect x="125" y="74" width="90" height="68" rx="9" fill="#E4E4E4"/>
<rect x="230" y="74" width="91" height="68" rx="9" fill="#E4E4E4"/>
<rect x="125" y="157" width="90" height="68" rx="9" fill="#E4E4E4"/>
<rect x="230" y="157" width="91" height="68" rx="9" fill="#E4E4E4"/>
<rect x="19" y="241" width="305" height="40" rx="9" fill="#E4E4E4"/>
<path d="M38.8 44L36.056 36.524H37.708L40.06 43.118H39.276L41.74 36.524H43.21L45.604 43.118H44.834L47.256 36.524H48.81L46.052 44H44.372L42.188 38.162H42.706L40.48 44H38.8ZM51.5148 44L48.7708 36.524H50.4228L52.7748 43.118H51.9908L54.4548 36.524H55.9248L58.3188 43.118H57.5488L59.9708 36.524H61.5248L58.7668 44H57.0868L54.9028 38.162H55.4208L53.1948 44H51.5148ZM64.2297 44L61.4857 36.524H63.1377L65.4897 43.118H64.7057L67.1697 36.524H68.6397L71.0337 43.118H70.2637L72.6857 36.524H74.2397L71.4817 44H69.8017L67.6177 38.162H68.1357L65.9097 44H64.2297ZM75.5381 44.098C75.2207 44.098 74.9501 43.9907 74.7261 43.776C74.5021 43.552 74.3901 43.272 74.3901 42.936C74.3901 42.5813 74.5021 42.3013 74.7261 42.096C74.9501 41.8813 75.2207 41.774 75.5381 41.774C75.8554 41.774 76.1261 41.8813 76.3501 42.096C76.5741 42.3013 76.6861 42.5813 76.6861 42.936C76.6861 43.272 76.5741 43.552 76.3501 43.776C76.1261 43.9907 75.8554 44.098 75.5381 44.098ZM77.78 44V42.894L82.386 37.322L82.708 37.924H77.864V36.524H84.108V37.63L79.502 43.202L79.152 42.6H84.234V44H77.78ZM90.4532 44V42.488L90.3552 42.166V39.52C90.3552 39.0067 90.2012 38.61 89.8932 38.33C89.5852 38.0407 89.1186 37.896 88.4932 37.896C88.0732 37.896 87.6579 37.9613 87.2472 38.092C86.8459 38.2227 86.5052 38.4047 86.2252 38.638L85.5392 37.364C85.9406 37.056 86.4166 36.8273 86.9672 36.678C87.5272 36.5193 88.1059 36.44 88.7032 36.44C89.7859 36.44 90.6212 36.7013 91.2092 37.224C91.8066 37.7373 92.1052 38.5353 92.1052 39.618V44H90.4532ZM88.1012 44.098C87.5412 44.098 87.0512 44.0047 86.6312 43.818C86.2112 43.622 85.8846 43.356 85.6512 43.02C85.4272 42.6747 85.3152 42.2873 85.3152 41.858C85.3152 41.438 85.4132 41.06 85.6092 40.724C85.8146 40.388 86.1459 40.122 86.6032 39.926C87.0606 39.73 87.6672 39.632 88.4232 39.632H90.5932V40.794H88.5492C87.9519 40.794 87.5506 40.892 87.3452 41.088C87.1399 41.2747 87.0372 41.508 87.0372 41.788C87.0372 42.1053 87.1632 42.3573 87.4152 42.544C87.6672 42.7307 88.0172 42.824 88.4652 42.824C88.8946 42.824 89.2772 42.726 89.6132 42.53C89.9586 42.334 90.2059 42.0447 90.3552 41.662L90.6492 42.712C90.4812 43.1507 90.1779 43.4913 89.7392 43.734C89.3099 43.9767 88.7639 44.098 88.1012 44.098ZM94.3511 44V36.524H96.0171V38.582L95.8211 37.98C96.0451 37.476 96.3951 37.0933 96.8711 36.832C97.3565 36.5707 97.9585 36.44 98.6771 36.44V38.106C98.6025 38.0873 98.5325 38.078 98.4671 38.078C98.4018 38.0687 98.3365 38.064 98.2711 38.064C97.6085 38.064 97.0811 38.26 96.6891 38.652C96.2971 39.0347 96.1011 39.6087 96.1011 40.374V44H94.3511ZM104.234 44V42.488L104.136 42.166V39.52C104.136 39.0067 103.982 38.61 103.674 38.33C103.366 38.0407 102.9 37.896 102.274 37.896C101.854 37.896 101.439 37.9613 101.028 38.092C100.627 38.2227 100.286 38.4047 100.006 38.638L99.3205 37.364C99.7218 37.056 100.198 36.8273 100.748 36.678C101.308 36.5193 101.887 36.44 102.484 36.44C103.567 36.44 104.402 36.7013 104.99 37.224C105.588 37.7373 105.886 38.5353 105.886 39.618V44H104.234ZM101.882 44.098C101.322 44.098 100.832 44.0047 100.412 43.818C99.9925 43.622 99.6658 43.356 99.4325 43.02C99.2085 42.6747 99.0965 42.2873 99.0965 41.858C99.0965 41.438 99.1945 41.06 99.3905 40.724C99.5958 40.388 99.9271 40.122 100.384 39.926C100.842 39.73 101.448 39.632 102.204 39.632H104.374V40.794H102.33C101.733 40.794 101.332 40.892 101.126 41.088C100.921 41.2747 100.818 41.508 100.818 41.788C100.818 42.1053 100.944 42.3573 101.196 42.544C101.448 42.7307 101.798 42.824 102.246 42.824C102.676 42.824 103.058 42.726 103.394 42.53C103.74 42.334 103.987 42.0447 104.136 41.662L104.43 42.712C104.262 43.1507 103.959 43.4913 103.52 43.734C103.091 43.9767 102.545 44.098 101.882 44.098ZM108.692 44.098C108.375 44.098 108.104 43.9907 107.88 43.776C107.656 43.552 107.544 43.272 107.544 42.936C107.544 42.5813 107.656 42.3013 107.88 42.096C108.104 41.8813 108.375 41.774 108.692 41.774C109.01 41.774 109.28 41.8813 109.504 42.096C109.728 42.3013 109.84 42.5813 109.84 42.936C109.84 43.272 109.728 43.552 109.504 43.776C109.28 43.9907 109.01 44.098 108.692 44.098ZM114.857 44.098C114.073 44.098 113.373 43.9347 112.757 43.608C112.151 43.272 111.675 42.8147 111.329 42.236C110.984 41.6573 110.811 40.9993 110.811 40.262C110.811 39.5153 110.984 38.8573 111.329 38.288C111.675 37.7093 112.151 37.2567 112.757 36.93C113.373 36.6033 114.073 36.44 114.857 36.44C115.585 36.44 116.225 36.5893 116.775 36.888C117.335 37.1773 117.76 37.6067 118.049 38.176L116.705 38.96C116.481 38.6053 116.206 38.344 115.879 38.176C115.562 38.008 115.217 37.924 114.843 37.924C114.414 37.924 114.027 38.0173 113.681 38.204C113.336 38.3907 113.065 38.6613 112.869 39.016C112.673 39.3613 112.575 39.7767 112.575 40.262C112.575 40.7473 112.673 41.1673 112.869 41.522C113.065 41.8673 113.336 42.1333 113.681 42.32C114.027 42.5067 114.414 42.6 114.843 42.6C115.217 42.6 115.562 42.516 115.879 42.348C116.206 42.18 116.481 41.9187 116.705 41.564L118.049 42.348C117.76 42.908 117.335 43.342 116.775 43.65C116.225 43.9487 115.585 44.098 114.857 44.098ZM122.813 44.098C122.047 44.098 121.366 43.9347 120.769 43.608C120.171 43.272 119.7 42.8147 119.355 42.236C119.009 41.6573 118.837 40.9993 118.837 40.262C118.837 39.5153 119.009 38.8573 119.355 38.288C119.7 37.7093 120.171 37.2567 120.769 36.93C121.366 36.6033 122.047 36.44 122.813 36.44C123.587 36.44 124.273 36.6033 124.871 36.93C125.477 37.2567 125.949 37.7047 126.285 38.274C126.63 38.8433 126.803 39.506 126.803 40.262C126.803 40.9993 126.63 41.6573 126.285 42.236C125.949 42.8147 125.477 43.272 124.871 43.608C124.273 43.9347 123.587 44.098 122.813 44.098ZM122.813 42.6C123.242 42.6 123.625 42.5067 123.961 42.32C124.297 42.1333 124.558 41.8627 124.745 41.508C124.941 41.1533 125.039 40.738 125.039 40.262C125.039 39.7767 124.941 39.3613 124.745 39.016C124.558 38.6613 124.297 38.3907 123.961 38.204C123.625 38.0173 123.247 37.924 122.827 37.924C122.397 37.924 122.015 38.0173 121.679 38.204C121.352 38.3907 121.091 38.6613 120.895 39.016C120.699 39.3613 120.601 39.7767 120.601 40.262C120.601 40.738 120.699 41.1533 120.895 41.508C121.091 41.8627 121.352 42.1333 121.679 42.32C122.015 42.5067 122.393 42.6 122.813 42.6ZM137.912 36.44C138.509 36.44 139.037 36.5567 139.494 36.79C139.961 37.0233 140.325 37.3827 140.586 37.868C140.847 38.344 140.978 38.96 140.978 39.716V44H139.228V39.94C139.228 39.2773 139.083 38.7827 138.794 38.456C138.505 38.1293 138.089 37.966 137.548 37.966C137.165 37.966 136.825 38.05 136.526 38.218C136.237 38.386 136.008 38.6333 135.84 38.96C135.681 39.2867 135.602 39.702 135.602 40.206V44H133.852V39.94C133.852 39.2773 133.707 38.7827 133.418 38.456C133.129 38.1293 132.713 37.966 132.172 37.966C131.789 37.966 131.449 38.05 131.15 38.218C130.861 38.386 130.632 38.6333 130.464 38.96C130.305 39.2867 130.226 39.702 130.226 40.206V44H128.476V36.524H130.142V38.512L129.848 37.924C130.1 37.4387 130.464 37.07 130.94 36.818C131.425 36.566 131.976 36.44 132.592 36.44C133.292 36.44 133.899 36.6127 134.412 36.958C134.935 37.3033 135.28 37.826 135.448 38.526L134.762 38.288C135.005 37.728 135.406 37.28 135.966 36.944C136.526 36.608 137.175 36.44 137.912 36.44ZM141.646 45.4L146.266 32.212H147.834L143.214 45.4H141.646ZM152.24 41.046C151.885 41.214 151.507 41.354 151.106 41.466C150.714 41.5687 150.298 41.62 149.86 41.62C148.917 41.62 148.184 41.4007 147.662 40.962C147.139 40.5233 146.878 39.842 146.878 38.918V36.524H148.628V38.806C148.628 39.3007 148.768 39.66 149.048 39.884C149.337 40.108 149.734 40.22 150.238 40.22C150.574 40.22 150.91 40.178 151.246 40.094C151.582 40.01 151.913 39.8933 152.24 39.744V41.046ZM152.114 44V36.524H153.864V44H152.114ZM159.703 44.098C158.872 44.098 158.144 43.9347 157.519 43.608C156.903 43.272 156.422 42.8147 156.077 42.236C155.741 41.6573 155.573 40.9993 155.573 40.262C155.573 39.5153 155.736 38.8573 156.063 38.288C156.399 37.7093 156.856 37.2567 157.435 36.93C158.023 36.6033 158.69 36.44 159.437 36.44C160.165 36.44 160.814 36.5987 161.383 36.916C161.952 37.2333 162.4 37.6813 162.727 38.26C163.054 38.8387 163.217 39.52 163.217 40.304C163.217 40.3787 163.212 40.4627 163.203 40.556C163.203 40.6493 163.198 40.738 163.189 40.822H156.959V39.66H162.265L161.579 40.024C161.588 39.5947 161.5 39.2167 161.313 38.89C161.126 38.5633 160.87 38.3067 160.543 38.12C160.226 37.9333 159.857 37.84 159.437 37.84C159.008 37.84 158.63 37.9333 158.303 38.12C157.986 38.3067 157.734 38.568 157.547 38.904C157.37 39.2307 157.281 39.618 157.281 40.066V40.346C157.281 40.794 157.384 41.1907 157.589 41.536C157.794 41.8813 158.084 42.1473 158.457 42.334C158.83 42.5207 159.26 42.614 159.745 42.614C160.165 42.614 160.543 42.5487 160.879 42.418C161.215 42.2873 161.514 42.082 161.775 41.802L162.713 42.88C162.377 43.272 161.952 43.5753 161.439 43.79C160.935 43.9953 160.356 44.098 159.703 44.098ZM169.275 44.098C168.668 44.098 168.113 43.958 167.609 43.678C167.114 43.398 166.718 42.978 166.419 42.418C166.13 41.8487 165.985 41.13 165.985 40.262C165.985 39.3847 166.125 38.666 166.405 38.106C166.694 37.546 167.086 37.1307 167.581 36.86C168.076 36.58 168.64 36.44 169.275 36.44C170.012 36.44 170.661 36.5987 171.221 36.916C171.79 37.2333 172.238 37.6767 172.565 38.246C172.901 38.8153 173.069 39.4873 173.069 40.262C173.069 41.0367 172.901 41.7133 172.565 42.292C172.238 42.8613 171.79 43.3047 171.221 43.622C170.661 43.9393 170.012 44.098 169.275 44.098ZM165.131 46.716V36.524H166.797V38.288L166.741 40.276L166.881 42.264V46.716H165.131ZM169.079 42.6C169.499 42.6 169.872 42.5067 170.199 42.32C170.535 42.1333 170.801 41.8627 170.997 41.508C171.193 41.1533 171.291 40.738 171.291 40.262C171.291 39.7767 171.193 39.3613 170.997 39.016C170.801 38.6613 170.535 38.3907 170.199 38.204C169.872 38.0173 169.499 37.924 169.079 37.924C168.659 37.924 168.281 38.0173 167.945 38.204C167.609 38.3907 167.343 38.6613 167.147 39.016C166.951 39.3613 166.853 39.7767 166.853 40.262C166.853 40.738 166.951 41.1533 167.147 41.508C167.343 41.8627 167.609 42.1333 167.945 42.32C168.281 42.5067 168.659 42.6 169.079 42.6ZM174.811 44V36.524H176.561V39.562H180.327V36.524H182.077V44H180.327V41.046H176.561V44H174.811ZM191.968 44V36.524H193.718V44H191.968ZM188.062 38.988C189.023 38.988 189.751 39.2027 190.246 39.632C190.75 40.0613 191.002 40.668 191.002 41.452C191.002 42.264 190.722 42.8987 190.162 43.356C189.611 43.804 188.827 44.0233 187.81 44.014L184.422 44V36.524H186.172V38.974L188.062 38.988ZM187.656 42.726C188.169 42.7353 188.561 42.628 188.832 42.404C189.103 42.18 189.238 41.8533 189.238 41.424C189.238 40.9947 189.103 40.6867 188.832 40.5C188.571 40.304 188.179 40.2013 187.656 40.192L186.172 40.178V42.712L187.656 42.726ZM199.557 44.098C198.726 44.098 197.998 43.9347 197.373 43.608C196.757 43.272 196.276 42.8147 195.931 42.236C195.595 41.6573 195.427 40.9993 195.427 40.262C195.427 39.5153 195.59 38.8573 195.917 38.288C196.253 37.7093 196.71 37.2567 197.289 36.93C197.877 36.6033 198.544 36.44 199.291 36.44C200.019 36.44 200.667 36.5987 201.237 36.916C201.806 37.2333 202.254 37.6813 202.581 38.26C202.907 38.8387 203.071 39.52 203.071 40.304C203.071 40.3787 203.066 40.4627 203.057 40.556C203.057 40.6493 203.052 40.738 203.043 40.822H196.813V39.66H202.119L201.433 40.024C201.442 39.5947 201.353 39.2167 201.167 38.89C200.98 38.5633 200.723 38.3067 200.397 38.12C200.079 37.9333 199.711 37.84 199.291 37.84C198.861 37.84 198.483 37.9333 198.157 38.12C197.839 38.3067 197.587 38.568 197.401 38.904C197.223 39.2307 197.135 39.618 197.135 40.066V40.346C197.135 40.794 197.237 41.1907 197.443 41.536C197.648 41.8813 197.937 42.1473 198.311 42.334C198.684 42.5207 199.113 42.614 199.599 42.614C200.019 42.614 200.397 42.5487 200.733 42.418C201.069 42.2873 201.367 42.082 201.629 41.802L202.567 42.88C202.231 43.272 201.806 43.5753 201.293 43.79C200.789 43.9953 200.21 44.098 199.557 44.098ZM204.715 40.836V39.38H208.565V40.836H204.715ZM215.87 44L213.168 40.416L214.596 39.534L217.928 44H215.87ZM210.508 44V36.524H212.258V44H210.508ZM211.74 41.004V39.548H214.274V41.004H211.74ZM214.764 40.472L213.126 40.276L215.87 36.524H217.746L214.764 40.472ZM223.306 44.098C222.7 44.098 222.144 43.958 221.64 43.678C221.146 43.398 220.749 42.978 220.45 42.418C220.161 41.8487 220.016 41.13 220.016 40.262C220.016 39.3847 220.156 38.666 220.436 38.106C220.726 37.546 221.118 37.1307 221.612 36.86C222.107 36.58 222.672 36.44 223.306 36.44C224.044 36.44 224.692 36.5987 225.252 36.916C225.822 37.2333 226.27 37.6767 226.596 38.246C226.932 38.8153 227.1 39.4873 227.1 40.262C227.1 41.0367 226.932 41.7133 226.596 42.292C226.27 42.8613 225.822 43.3047 225.252 43.622C224.692 43.9393 224.044 44.098 223.306 44.098ZM219.162 46.716V36.524H220.828V38.288L220.772 40.276L220.912 42.264V46.716H219.162ZM223.11 42.6C223.53 42.6 223.904 42.5067 224.23 42.32C224.566 42.1333 224.832 41.8627 225.028 41.508C225.224 41.1533 225.322 40.738 225.322 40.262C225.322 39.7767 225.224 39.3613 225.028 39.016C224.832 38.6613 224.566 38.3907 224.23 38.204C223.904 38.0173 223.53 37.924 223.11 37.924C222.69 37.924 222.312 38.0173 221.976 38.204C221.64 38.3907 221.374 38.6613 221.178 39.016C220.982 39.3613 220.884 39.7767 220.884 40.262C220.884 40.738 220.982 41.1533 221.178 41.508C221.374 41.8627 221.64 42.1333 221.976 42.32C222.312 42.5067 222.69 42.6 223.11 42.6ZM232.174 44.098C231.409 44.098 230.727 43.9347 230.13 43.608C229.533 43.272 229.061 42.8147 228.716 42.236C228.371 41.6573 228.198 40.9993 228.198 40.262C228.198 39.5153 228.371 38.8573 228.716 38.288C229.061 37.7093 229.533 37.2567 230.13 36.93C230.727 36.6033 231.409 36.44 232.174 36.44C232.949 36.44 233.635 36.6033 234.232 36.93C234.839 37.2567 235.31 37.7047 235.646 38.274C235.991 38.8433 236.164 39.506 236.164 40.262C236.164 40.9993 235.991 41.6573 235.646 42.236C235.31 42.8147 234.839 43.272 234.232 43.608C233.635 43.9347 232.949 44.098 232.174 44.098ZM232.174 42.6C232.603 42.6 232.986 42.5067 233.322 42.32C233.658 42.1333 233.919 41.8627 234.106 41.508C234.302 41.1533 234.4 40.738 234.4 40.262C234.4 39.7767 234.302 39.3613 234.106 39.016C233.919 38.6613 233.658 38.3907 233.322 38.204C232.986 38.0173 232.608 37.924 232.188 37.924C231.759 37.924 231.376 38.0173 231.04 38.204C230.713 38.3907 230.452 38.6613 230.256 39.016C230.06 39.3613 229.962 39.7767 229.962 40.262C229.962 40.738 230.06 41.1533 230.256 41.508C230.452 41.8627 230.713 42.1333 231.04 42.32C231.376 42.5067 231.754 42.6 232.174 42.6ZM241.295 44.098C240.511 44.098 239.811 43.9347 239.195 43.608C238.588 43.272 238.112 42.8147 237.767 42.236C237.421 41.6573 237.249 40.9993 237.249 40.262C237.249 39.5153 237.421 38.8573 237.767 38.288C238.112 37.7093 238.588 37.2567 239.195 36.93C239.811 36.6033 240.511 36.44 241.295 36.44C242.023 36.44 242.662 36.5893 243.213 36.888C243.773 37.1773 244.197 37.6067 244.487 38.176L243.143 38.96C242.919 38.6053 242.643 38.344 242.317 38.176C241.999 38.008 241.654 37.924 241.281 37.924C240.851 37.924 240.464 38.0173 240.119 38.204C239.773 38.3907 239.503 38.6613 239.307 39.016C239.111 39.3613 239.013 39.7767 239.013 40.262C239.013 40.7473 239.111 41.1673 239.307 41.522C239.503 41.8673 239.773 42.1333 240.119 42.32C240.464 42.5067 240.851 42.6 241.281 42.6C241.654 42.6 241.999 42.516 242.317 42.348C242.643 42.18 242.919 41.9187 243.143 41.564L244.487 42.348C244.197 42.908 243.773 43.342 243.213 43.65C242.662 43.9487 242.023 44.098 241.295 44.098ZM249.25 44.098C248.485 44.098 247.804 43.9347 247.206 43.608C246.609 43.272 246.138 42.8147 245.792 42.236C245.447 41.6573 245.274 40.9993 245.274 40.262C245.274 39.5153 245.447 38.8573 245.792 38.288C246.138 37.7093 246.609 37.2567 247.206 36.93C247.804 36.6033 248.485 36.44 249.25 36.44C250.025 36.44 250.711 36.6033 251.308 36.93C251.915 37.2567 252.386 37.7047 252.722 38.274C253.068 38.8433 253.24 39.506 253.24 40.262C253.24 40.9993 253.068 41.6573 252.722 42.236C252.386 42.8147 251.915 43.272 251.308 43.608C250.711 43.9347 250.025 44.098 249.25 44.098ZM249.25 42.6C249.68 42.6 250.062 42.5067 250.398 42.32C250.734 42.1333 250.996 41.8627 251.182 41.508C251.378 41.1533 251.476 40.738 251.476 40.262C251.476 39.7767 251.378 39.3613 251.182 39.016C250.996 38.6613 250.734 38.3907 250.398 38.204C250.062 38.0173 249.684 37.924 249.264 37.924C248.835 37.924 248.452 38.0173 248.116 38.204C247.79 38.3907 247.528 38.6613 247.332 39.016C247.136 39.3613 247.038 39.7767 247.038 40.262C247.038 40.738 247.136 41.1533 247.332 41.508C247.528 41.8627 247.79 42.1333 248.116 42.32C248.452 42.5067 248.83 42.6 249.25 42.6ZM254.969 44V36.524H258.623C259.528 36.524 260.238 36.692 260.751 37.028C261.274 37.364 261.535 37.84 261.535 38.456C261.535 39.0627 261.292 39.5387 260.807 39.884C260.322 40.22 259.678 40.388 258.875 40.388L259.085 39.954C259.99 39.954 260.662 40.122 261.101 40.458C261.549 40.7847 261.773 41.2653 261.773 41.9C261.773 42.5627 261.526 43.0807 261.031 43.454C260.536 43.818 259.785 44 258.777 44H254.969ZM256.635 42.726H258.637C259.113 42.726 259.472 42.6513 259.715 42.502C259.958 42.3433 260.079 42.1053 260.079 41.788C260.079 41.452 259.967 41.2047 259.743 41.046C259.519 40.8873 259.169 40.808 258.693 40.808H256.635V42.726ZM256.635 39.646H258.469C258.917 39.646 259.253 39.5667 259.477 39.408C259.71 39.24 259.827 39.0067 259.827 38.708C259.827 38.4 259.71 38.1713 259.477 38.022C259.253 37.8727 258.917 37.798 258.469 37.798H256.635V39.646ZM268.999 44L266.297 40.416L267.725 39.534L271.057 44H268.999ZM263.637 44V36.524H265.387V44H263.637ZM264.869 41.004V39.548H267.403V41.004H264.869ZM267.893 40.472L266.255 40.276L268.999 36.524H270.875L267.893 40.472ZM272.291 44V36.524H274.041V41.452L278.171 36.524H279.767V44H278.017V39.072L273.901 44H272.291Z" fill="white"/>
</svg>
