<svg width="343" height="300" viewBox="0 0 343 300" fill="none" xmlns="http://www.w3.org/2000/svg">
<rect width="343" height="300" rx="12" fill="white"/>
<rect x="19" y="19" width="305" height="39" rx="9" fill="#E4E4E4"/>
<rect x="19" y="74" width="105" height="68" rx="9" fill="#E4E4E4"/>
<rect x="139" y="74" width="106" height="68" rx="9" fill="#E4E4E4"/>
<rect x="19" y="157" width="105" height="68" rx="9" fill="#E4E4E4"/>
<rect x="139" y="157" width="106" height="68" rx="9" fill="#E4E4E4"/>
<path d="M272 82C272 77.5817 275.582 74 280 74H324V224H280C275.582 224 272 220.418 272 216V82Z" fill="#9ACD90"/>
<path fill-rule="evenodd" clip-rule="evenodd" d="M287.265 98.8531C287.346 98.4469 287.741 98.1835 288.147 98.2647L289.197 98.4746C290.382 98.7116 291.273 99.6948 291.394 100.898L291.479 101.75H305.054C307.039 101.75 308.495 103.615 308.013 105.54L306.891 110.031C306.418 111.923 304.718 113.25 302.767 113.25H293.774C292.382 113.25 291.21 112.21 291.044 110.828L290.055 102.582L289.901 101.047C289.846 100.5 289.441 100.053 288.902 99.9455L287.853 99.7356C287.447 99.6543 287.183 99.2592 287.265 98.8531ZM295 108.75C294.586 108.75 294.25 109.086 294.25 109.5C294.25 109.914 294.586 110.25 295 110.25H299C299.414 110.25 299.75 109.914 299.75 109.5C299.75 109.086 299.414 108.75 299 108.75H295Z" fill="#212121"/>
<circle cx="294.5" cy="116" r="1.5" fill="#212121"/>
<circle cx="303.5" cy="116" r="1.5" fill="#212121"/>
<path d="M298.199 141.574L298.199 139.282L293 139.282L293 137.027L305.337 137.027L305.337 139.282L300.173 139.282L300.173 141.644L305.337 145.187L305.337 147.619L299.362 143.407L293 147.777L293 145.187L298.199 141.574ZM302.411 157.848L292.242 153.442C291.22 153.031 290.503 152.531 290.092 151.944C289.669 151.356 289.457 150.646 289.457 149.811C289.457 149.341 289.534 148.877 289.687 148.419C289.839 147.961 290.051 147.585 290.321 147.291L291.943 148.172C291.743 148.384 291.584 148.631 291.467 148.913C291.349 149.206 291.29 149.5 291.29 149.794C291.29 150.181 291.39 150.499 291.59 150.745C291.79 151.004 292.125 151.239 292.595 151.45L292.965 151.609L302.411 147.503L302.411 149.794L295.45 152.755L302.411 155.733L302.411 157.848ZM302.411 168.402L293 168.402L293 166.217L300.543 166.217L300.543 161.581L293 161.581L293 159.378L302.411 159.378L302.411 168.402ZM302.411 171.375L302.411 173.578L296.208 173.578L302.411 178.777L302.411 180.786L293 180.786L293 178.583L299.204 178.583L293 173.401L293 171.375L302.411 171.375ZM300.543 191.205L300.543 187.909L293 187.909L293 185.706L300.543 185.706L300.543 182.392L302.411 182.392L302.411 191.205L300.543 191.205ZM299.31 197.526C299.31 198.724 299.039 199.641 298.499 200.275C297.958 200.922 297.195 201.245 296.208 201.245C295.174 201.245 294.375 200.892 293.811 200.187C293.247 199.482 292.971 198.489 292.982 197.209L293 192.803L302.411 192.803L302.411 195.006L299.327 195.006L299.31 197.526ZM294.604 197.015C294.592 197.661 294.727 198.155 295.009 198.495C295.291 198.836 295.702 199.006 296.243 199.006C296.772 199.006 297.159 198.842 297.406 198.513C297.653 198.184 297.782 197.685 297.794 197.015L297.811 195.006L294.621 195.006L294.604 197.015Z" fill="#212121"/>
<rect x="19" y="241" width="305" height="40" rx="9" fill="#E4E4E4"/>
<g clip-path="url(#clip0_616_20634)">
<path d="M318.583 211.625V210M314.316 213.316L313.167 212.167M314.316 221.917L313.167 223.066M322.917 213.316L324.066 212.167M312.625 217.583H311M318.042 217.042L322.495 230.884L325.625 227.755L329.537 231.667L332.667 228.537L328.755 224.625L331.884 221.495L318.042 217.042Z" stroke="#212121" stroke-width="2.16667" stroke-linecap="round" stroke-linejoin="round"/>
</g>
<defs>
<clipPath id="clip0_616_20634">
<rect width="26" height="26" fill="white" transform="translate(307 206)"/>
</clipPath>
</defs>
</svg>
