<svg width="343" height="217" viewBox="0 0 343 217" fill="none" xmlns="http://www.w3.org/2000/svg">
<rect width="343" height="217" rx="12" fill="white"/>
<rect x="19" y="19" width="305" height="39" rx="9" fill="#5137C3"/>
<rect x="19" y="74" width="91" height="68" rx="9" fill="#E4E4E4"/>
<rect x="125" y="74" width="90" height="68" rx="9" fill="#E4E4E4"/>
<rect x="230" y="74" width="91" height="68" rx="9" fill="#E4E4E4"/>
<rect x="19" y="158" width="305" height="40" rx="9" fill="#E4E4E4"/>
<path d="M38.8 44L36.056 36.524H37.708L40.06 43.118H39.276L41.74 36.524H43.21L45.604 43.118H44.834L47.256 36.524H48.81L46.052 44H44.372L42.188 38.162H42.706L40.48 44H38.8ZM51.5148 44L48.7708 36.524H50.4228L52.7748 43.118H51.9908L54.4548 36.524H55.9248L58.3188 43.118H57.5488L59.9708 36.524H61.5248L58.7668 44H57.0868L54.9028 38.162H55.4208L53.1948 44H51.5148ZM64.2297 44L61.4857 36.524H63.1377L65.4897 43.118H64.7057L67.1697 36.524H68.6397L71.0337 43.118H70.2637L72.6857 36.524H74.2397L71.4817 44H69.8017L67.6177 38.162H68.1357L65.9097 44H64.2297ZM75.5381 44.098C75.2207 44.098 74.9501 43.9907 74.7261 43.776C74.5021 43.552 74.3901 43.272 74.3901 42.936C74.3901 42.5813 74.5021 42.3013 74.7261 42.096C74.9501 41.8813 75.2207 41.774 75.5381 41.774C75.8554 41.774 76.1261 41.8813 76.3501 42.096C76.5741 42.3013 76.6861 42.5813 76.6861 42.936C76.6861 43.272 76.5741 43.552 76.3501 43.776C76.1261 43.9907 75.8554 44.098 75.5381 44.098ZM77.78 44V42.894L82.386 37.322L82.708 37.924H77.864V36.524H84.108V37.63L79.502 43.202L79.152 42.6H84.234V44H77.78ZM90.4532 44V42.488L90.3552 42.166V39.52C90.3552 39.0067 90.2012 38.61 89.8932 38.33C89.5852 38.0407 89.1186 37.896 88.4932 37.896C88.0732 37.896 87.6579 37.9613 87.2472 38.092C86.8459 38.2227 86.5052 38.4047 86.2252 38.638L85.5392 37.364C85.9406 37.056 86.4166 36.8273 86.9672 36.678C87.5272 36.5193 88.1059 36.44 88.7032 36.44C89.7859 36.44 90.6212 36.7013 91.2092 37.224C91.8066 37.7373 92.1052 38.5353 92.1052 39.618V44H90.4532ZM88.1012 44.098C87.5412 44.098 87.0512 44.0047 86.6312 43.818C86.2112 43.622 85.8846 43.356 85.6512 43.02C85.4272 42.6747 85.3152 42.2873 85.3152 41.858C85.3152 41.438 85.4132 41.06 85.6092 40.724C85.8146 40.388 86.1459 40.122 86.6032 39.926C87.0606 39.73 87.6672 39.632 88.4232 39.632H90.5932V40.794H88.5492C87.9519 40.794 87.5506 40.892 87.3452 41.088C87.1399 41.2747 87.0372 41.508 87.0372 41.788C87.0372 42.1053 87.1632 42.3573 87.4152 42.544C87.6672 42.7307 88.0172 42.824 88.4652 42.824C88.8946 42.824 89.2772 42.726 89.6132 42.53C89.9586 42.334 90.2059 42.0447 90.3552 41.662L90.6492 42.712C90.4812 43.1507 90.1779 43.4913 89.7392 43.734C89.3099 43.9767 88.7639 44.098 88.1012 44.098ZM94.3511 44V36.524H96.0171V38.582L95.8211 37.98C96.0451 37.476 96.3951 37.0933 96.8711 36.832C97.3565 36.5707 97.9585 36.44 98.6771 36.44V38.106C98.6025 38.0873 98.5325 38.078 98.4671 38.078C98.4018 38.0687 98.3365 38.064 98.2711 38.064C97.6085 38.064 97.0811 38.26 96.6891 38.652C96.2971 39.0347 96.1011 39.6087 96.1011 40.374V44H94.3511ZM104.234 44V42.488L104.136 42.166V39.52C104.136 39.0067 103.982 38.61 103.674 38.33C103.366 38.0407 102.9 37.896 102.274 37.896C101.854 37.896 101.439 37.9613 101.028 38.092C100.627 38.2227 100.286 38.4047 100.006 38.638L99.3205 37.364C99.7218 37.056 100.198 36.8273 100.748 36.678C101.308 36.5193 101.887 36.44 102.484 36.44C103.567 36.44 104.402 36.7013 104.99 37.224C105.588 37.7373 105.886 38.5353 105.886 39.618V44H104.234ZM101.882 44.098C101.322 44.098 100.832 44.0047 100.412 43.818C99.9925 43.622 99.6658 43.356 99.4325 43.02C99.2085 42.6747 99.0965 42.2873 99.0965 41.858C99.0965 41.438 99.1945 41.06 99.3905 40.724C99.5958 40.388 99.9271 40.122 100.384 39.926C100.842 39.73 101.448 39.632 102.204 39.632H104.374V40.794H102.33C101.733 40.794 101.332 40.892 101.126 41.088C100.921 41.2747 100.818 41.508 100.818 41.788C100.818 42.1053 100.944 42.3573 101.196 42.544C101.448 42.7307 101.798 42.824 102.246 42.824C102.676 42.824 103.058 42.726 103.394 42.53C103.74 42.334 103.987 42.0447 104.136 41.662L104.43 42.712C104.262 43.1507 103.959 43.4913 103.52 43.734C103.091 43.9767 102.545 44.098 101.882 44.098ZM108.692 44.098C108.375 44.098 108.104 43.9907 107.88 43.776C107.656 43.552 107.544 43.272 107.544 42.936C107.544 42.5813 107.656 42.3013 107.88 42.096C108.104 41.8813 108.375 41.774 108.692 41.774C109.01 41.774 109.28 41.8813 109.504 42.096C109.728 42.3013 109.84 42.5813 109.84 42.936C109.84 43.272 109.728 43.552 109.504 43.776C109.28 43.9907 109.01 44.098 108.692 44.098ZM114.857 44.098C114.073 44.098 113.373 43.9347 112.757 43.608C112.151 43.272 111.675 42.8147 111.329 42.236C110.984 41.6573 110.811 40.9993 110.811 40.262C110.811 39.5153 110.984 38.8573 111.329 38.288C111.675 37.7093 112.151 37.2567 112.757 36.93C113.373 36.6033 114.073 36.44 114.857 36.44C115.585 36.44 116.225 36.5893 116.775 36.888C117.335 37.1773 117.76 37.6067 118.049 38.176L116.705 38.96C116.481 38.6053 116.206 38.344 115.879 38.176C115.562 38.008 115.217 37.924 114.843 37.924C114.414 37.924 114.027 38.0173 113.681 38.204C113.336 38.3907 113.065 38.6613 112.869 39.016C112.673 39.3613 112.575 39.7767 112.575 40.262C112.575 40.7473 112.673 41.1673 112.869 41.522C113.065 41.8673 113.336 42.1333 113.681 42.32C114.027 42.5067 114.414 42.6 114.843 42.6C115.217 42.6 115.562 42.516 115.879 42.348C116.206 42.18 116.481 41.9187 116.705 41.564L118.049 42.348C117.76 42.908 117.335 43.342 116.775 43.65C116.225 43.9487 115.585 44.098 114.857 44.098ZM122.813 44.098C122.047 44.098 121.366 43.9347 120.769 43.608C120.171 43.272 119.7 42.8147 119.355 42.236C119.009 41.6573 118.837 40.9993 118.837 40.262C118.837 39.5153 119.009 38.8573 119.355 38.288C119.7 37.7093 120.171 37.2567 120.769 36.93C121.366 36.6033 122.047 36.44 122.813 36.44C123.587 36.44 124.273 36.6033 124.871 36.93C125.477 37.2567 125.949 37.7047 126.285 38.274C126.63 38.8433 126.803 39.506 126.803 40.262C126.803 40.9993 126.63 41.6573 126.285 42.236C125.949 42.8147 125.477 43.272 124.871 43.608C124.273 43.9347 123.587 44.098 122.813 44.098ZM122.813 42.6C123.242 42.6 123.625 42.5067 123.961 42.32C124.297 42.1333 124.558 41.8627 124.745 41.508C124.941 41.1533 125.039 40.738 125.039 40.262C125.039 39.7767 124.941 39.3613 124.745 39.016C124.558 38.6613 124.297 38.3907 123.961 38.204C123.625 38.0173 123.247 37.924 122.827 37.924C122.397 37.924 122.015 38.0173 121.679 38.204C121.352 38.3907 121.091 38.6613 120.895 39.016C120.699 39.3613 120.601 39.7767 120.601 40.262C120.601 40.738 120.699 41.1533 120.895 41.508C121.091 41.8627 121.352 42.1333 121.679 42.32C122.015 42.5067 122.393 42.6 122.813 42.6ZM137.912 36.44C138.509 36.44 139.037 36.5567 139.494 36.79C139.961 37.0233 140.325 37.3827 140.586 37.868C140.847 38.344 140.978 38.96 140.978 39.716V44H139.228V39.94C139.228 39.2773 139.083 38.7827 138.794 38.456C138.505 38.1293 138.089 37.966 137.548 37.966C137.165 37.966 136.825 38.05 136.526 38.218C136.237 38.386 136.008 38.6333 135.84 38.96C135.681 39.2867 135.602 39.702 135.602 40.206V44H133.852V39.94C133.852 39.2773 133.707 38.7827 133.418 38.456C133.129 38.1293 132.713 37.966 132.172 37.966C131.789 37.966 131.449 38.05 131.15 38.218C130.861 38.386 130.632 38.6333 130.464 38.96C130.305 39.2867 130.226 39.702 130.226 40.206V44H128.476V36.524H130.142V38.512L129.848 37.924C130.1 37.4387 130.464 37.07 130.94 36.818C131.425 36.566 131.976 36.44 132.592 36.44C133.292 36.44 133.899 36.6127 134.412 36.958C134.935 37.3033 135.28 37.826 135.448 38.526L134.762 38.288C135.005 37.728 135.406 37.28 135.966 36.944C136.526 36.608 137.175 36.44 137.912 36.44Z" fill="white"/>
</svg>
