<svg width="25" height="25" viewBox="0 0 25 25" fill="none" xmlns="http://www.w3.org/2000/svg">
<path fill-rule="evenodd" clip-rule="evenodd" d="M12.8134 2.32812C9.45165 2.32812 6.72643 5.05335 6.72643 8.41508V10.5076C6.72643 11.608 6.01735 12.5703 5.45376 13.5154C5.15749 14.0121 4.98729 14.5928 4.98729 15.2133C4.98729 16.8162 6.13249 18.1914 7.7202 18.4116C9.29689 18.6302 11.267 18.8501 12.8134 18.8501C14.3597 18.8501 16.3299 18.6302 17.9066 18.4116C19.4943 18.1914 20.6395 16.8162 20.6395 15.2133C20.6395 14.5928 20.4693 14.0121 20.173 13.5154C19.6094 12.5703 18.9003 11.608 18.9003 10.5076V8.41508C18.9003 5.05335 16.1751 2.32812 12.8134 2.32812Z" fill="#212121"/>
<path d="M4.9873 15.2133L4.2373 15.2133L4.9873 15.2133ZM7.72022 18.4116L7.82323 17.6687L7.82323 17.6687L7.72022 18.4116ZM17.9066 18.4116L17.8036 17.6687L17.8036 17.6687L17.9066 18.4116ZM5.45377 13.5154L4.80962 13.1312L5.45377 13.5154ZM7.47644 8.41508C7.47644 5.46756 9.86588 3.07812 12.8134 3.07812V1.57812C9.03745 1.57812 5.97644 4.63913 5.97644 8.41508H7.47644ZM7.47644 10.5076V8.41508H5.97644V10.5076H7.47644ZM5.7373 15.2133C5.7373 14.7318 5.86901 14.2834 6.09792 13.8995L4.80962 13.1312C4.44601 13.7409 4.2373 14.4539 4.2373 15.2133L5.7373 15.2133ZM7.82323 17.6687C6.62359 17.5023 5.7373 16.4594 5.7373 15.2133L4.2373 15.2133C4.2373 17.1729 5.64142 18.8805 7.6172 19.1545L7.82323 17.6687ZM12.8134 18.1001C11.3214 18.1001 9.39382 17.8865 7.82323 17.6687L7.6172 19.1545C9.19998 19.3739 11.2127 19.6001 12.8134 19.6001V18.1001ZM17.8036 17.6687C16.233 17.8865 14.3054 18.1001 12.8134 18.1001V19.6001C14.4141 19.6001 16.4268 19.3739 18.0096 19.1545L17.8036 17.6687ZM19.8895 15.2133C19.8895 16.4594 19.0032 17.5023 17.8036 17.6687L18.0096 19.1545C19.9854 18.8805 21.3895 17.1729 21.3895 15.2133H19.8895ZM19.5289 13.8995C19.7578 14.2834 19.8895 14.7318 19.8895 15.2133H21.3895C21.3895 14.4539 21.1808 13.7409 20.8172 13.1312L19.5289 13.8995ZM18.1504 8.41508V10.5076H19.6504V8.41508H18.1504ZM12.8134 3.07812C15.7609 3.07812 18.1504 5.46756 18.1504 8.41508H19.6504C19.6504 4.63914 16.5893 1.57812 12.8134 1.57812V3.07812ZM20.8172 13.1312C20.5083 12.6133 20.2277 12.1982 19.9964 11.7348C19.7749 11.291 19.6504 10.8951 19.6504 10.5076H18.1504C18.1504 11.2205 18.3804 11.8559 18.6543 12.4047C18.9184 12.9338 19.2742 13.4724 19.5289 13.8995L20.8172 13.1312ZM5.97644 10.5076C5.97644 10.8951 5.85192 11.291 5.63041 11.7348C5.39907 12.1982 5.11852 12.6132 4.80962 13.1312L6.09792 13.8995C6.35262 13.4724 6.7084 12.9338 6.9725 12.4047C7.24642 11.8559 7.47644 11.2205 7.47644 10.5076H5.97644Z" fill="#212121"/>
<path d="M14.9873 21.1641C14.5199 21.867 13.7208 22.3302 12.8134 22.3302C11.906 22.3302 11.1068 21.867 10.6395 21.1641" stroke="#212121" stroke-width="1.5" stroke-linecap="round"/>
</svg>
