<svg width="128" height="129" viewBox="0 0 128 129" fill="none" xmlns="http://www.w3.org/2000/svg">
<path d="M6.69546 47.1666C7.39353 30.8485 20.8437 17.8333 37.3337 17.8333H90.667C107.157 17.8333 120.607 30.8485 121.305 47.1666H6.69546Z" fill="#212121"/>
<path fill-rule="evenodd" clip-rule="evenodd" d="M121.334 55.1666V80.5C121.334 97.4367 107.604 111.167 90.667 111.167H37.3337C20.3969 111.167 6.66699 97.4367 6.66699 80.5V55.1666H121.334ZM32.0003 79.1666C29.7912 79.1666 28.0003 80.9575 28.0003 83.1666C28.0003 85.3758 29.7912 87.1666 32.0003 87.1666H58.667C60.8761 87.1666 62.667 85.3758 62.667 83.1666C62.667 80.9575 60.8761 79.1666 58.667 79.1666H32.0003Z" fill="#212121"/>
</svg>
