<?xml version="1.0" encoding="utf-8"?>
<!-- Svg Vector Icons : http://www.onlinewebfonts.com/icon -->
<!DOCTYPE svg PUBLIC "-//W3C//DTD SVG 1.1//EN" "http://www.w3.org/Graphics/SVG/1.1/DTD/svg11.dtd">
<svg version="1.1" xmlns="http://www.w3.org/2000/svg" xmlns:xlink="http://www.w3.org/1999/xlink" x="0px" y="0px" viewBox="0 0 1000 1000" enable-background="new 0 0 1000 1000" xml:space="preserve">
<metadata> Svg Vector Icons : http://www.onlinewebfonts.com/icon </metadata>
<g><g transform="translate(0.000000,511.000000) scale(0.100000,-0.100000)"><path d="M8001.7,4992.6c-164.9-27.5-416.2-121.7-571.3-214c-184.5-109.9-428-343.6-549.7-528.1c-104.1-159-194.4-373-235.6-555.6c-17.7-82.4-33.4-113.9-56.9-113.9c-17.7,0-229.7,39.3-471.2,88.3c-241.5,49.1-457.4,88.3-479,88.3c-27.5,0-912.9-871.6-2789.6-2748.4L100-1739.1l1527.3-1525.4l1525.4-1527.3l2748.4,2748.4c1865,1865,2748.4,2762.2,2748.4,2787.7c0,23.6-43.2,253.2-94.2,514.4l-96.2,471.2l121.7,23.6c274.8,55,555.6,204.2,781.3,414.2c573.2,530,700.8,1323.2,322,2002.4c-111.9,202.2-420.1,510.4-622.3,622.3C8728.1,4978.9,8351.1,5049.5,8001.7,4992.6z M8557.3,4668.7c512.4-115.8,899.1-504.5,1003.2-1013c106-510.4-82.4-1052.2-465.3-1342.8c-188.5-143.3-357.3-214-653.7-272.9c-39.3-7.9-47.1,19.6-164.9,606.6l-121.7,616.4l-612.5,121.7c-335.7,66.7-612.5,123.7-616.4,127.6c-15.7,15.7,68.7,314.1,123.7,431.9C7306.7,4503.8,7938.9,4808.1,8557.3,4668.7z M6804.2,3215.9c577.2-115.8,1060.1-219.9,1071.9-231.7c11.8-11.8,58.9-212,104.1-443.7c45.2-231.7,88.3-439.7,94.2-459.4c9.8-33.4,2-35.3-76.6-25.5c-47.1,5.9-111.9,21.6-141.3,31.4c-47.1,19.6-51,25.5-27.5,64.8c11.8,25.5,23.6,111.9,23.6,192.4c2,123.7-7.9,164.9-53,249.3c-76.6,147.2-153.1,225.8-292.5,302.3c-109.9,58.9-141.4,66.7-270.9,66.7c-129.6,0-161-7.9-270.9-66.7c-139.4-76.6-215.9-155.1-292.5-302.3c-45.1-84.4-55-127.6-55-249.3c0-131.5,7.9-161,66.8-270.9c76.6-139.4,155.1-215.9,302.3-292.5c84.4-45.1,127.6-55,249.3-53c127.6,0,162.9,7.9,259.1,60.9l113.8,60.8l151.2-49.1c84.4-25.5,194.3-53,245.4-58.9c53-5.9,106-21.6,121.7-33.4c13.7-11.8,62.8-204.2,109.9-449.6l84.4-429.9L5738.2-1754.8L3152.7-4340.3L1853.1-3038.7L551.5-1739.1L3133.1,842.5C4552.4,2261.8,5722.5,3424,5734.3,3424C5744.1,3424,6227,3329.8,6804.2,3215.9z M7428.5,2607.4c29.5-21.6,68.7-70.7,86.4-108c41.2-78.5,47.1-253.2,9.8-253.2c-57,0-386.8,337.7-386.8,396.6C7137.9,2678,7367.6,2650.6,7428.5,2607.4z M7192.9,2116.6l106-86.4h-76.6c-161,0-278.8,108-294.5,267l-7.8,96.2l82.4-94.2C7049.6,2246.1,7134,2163.7,7192.9,2116.6z"/><path d="M5950.2,2042c-170.8-41.2-286.6-113.9-481-300.4L5282.7,1561l585-585l585-585l180.6,186.5c202.2,208.1,272.9,331.8,310.2,534C7047.6,1674.9,6509.7,2179.4,5950.2,2042z M6362.5,1700.4c92.3-47.1,186.5-143.3,237.5-239.5c25.5-49.1,37.3-109.9,37.3-215.9c0-161-39.3-263.1-135.5-353.4l-53-47.1l-355.3,357.3l-357.3,355.3l47.1,53c51,53,129.6,100.1,215.9,127.6C6079.8,1765.2,6278.1,1743.6,6362.5,1700.4z"/><path d="M5076.6,1352.9l-108-108l343.5-345.5c241.5-241.5,329.8-339.6,294.5-331.8C5426,608.9,4570.1,773.8,4536.7,773.8c-21.6,0-76.6-35.3-117.8-78.5l-78.5-78.5l585-585l583.1-583.1l111.9,113.9l113.9,111.9L5390.7,19.9c-241.5,241.5-329.8,339.6-294.5,331.8c180.6-41.2,1036.5-206.1,1069.9-206.1c21.6,0,76.6,35.3,117.8,78.5l76.6,78.5l-577.2,579.1c-318,318-583.1,579.1-588.9,579.1C5188.5,1460.9,5135.5,1411.8,5076.6,1352.9z"/><path d="M3820.2,96.5l-422.1-422.1l585-583.1l583.1-585l111.9,113.9l113.9,111.9l-235.6,235.6l-235.6,235.6L4523-596.5l200.2,202.2l235.6-235.6l235.6-235.6l111.9,113.9l113.9,111.9L4841-60.6c-318,318-583.1,579.1-588.9,579.1C4246.2,518.6,4051.8,328.1,3820.2,96.5z M4379.7-50.8l117.8-117.8l-202.2-202.2L4095-571l-121.7,123.7l-123.7,121.7l196.3,196.3c108,108,200.2,196.3,206.1,196.3C4258,67,4314.9,14,4379.7-50.8z"/><path d="M3144.9-651.5c-80.5-25.5-141.4-74.6-392.6-322L2455.8-1266l583.1-585l585-585l111.9,113.9l113.9,111.9l-471.2,471.2L2907.3-1266l168.8,164.9c196.3,192.4,251.3,210.1,353.4,109.9c96.2-98.2,80.5-157.1-84.4-327.8l-141.3-147.2l111.9-111.9l111.9-111.9l111.9,111.9l113.9,111.9l294.5-174.7l292.5-176.7l104.1,102.1c56.9,56.9,102.1,111.9,98.2,123.7c-3.9,9.8-147.2,104-320,206.1l-312.1,188.4l-11.8,100.1c-19.6,159-55,235.6-147.2,329.8C3513.9-629.9,3343.1-592.6,3144.9-651.5z"/><path d="M2202.5-1593.8c-80.5-25.5-141.4-74.6-392.6-322l-296.4-292.5l583.1-585l585-585l247.4,245.4c135.5,135.5,272.9,282.7,304.3,327.9c198.3,284.7,55,667.5-282.7,753.8c-82.5,19.6-90.3,27.5-109.9,109.9c-45.2,174.7-176.7,312.1-345.5,357.3C2393-1556.5,2320.3-1558.4,2202.5-1593.8z M2487.2-1933.4c96.2-98.2,80.5-157.1-84.4-327.8l-141.3-147.2l111.9-110l109.9-111.9l147.2,141.4c170.8,164.9,229.7,180.6,327.8,84.4c100.1-102.1,82.5-157.1-109.9-353.4l-166.9-168.8l-357.3,359.3L1965-2210.2l168.8,166.9C2330.1-1851,2385.1-1833.3,2487.2-1933.4z"/></g></g>
</svg>