<svg width="430" height="351" viewBox="0 0 430 351" fill="none" xmlns="http://www.w3.org/2000/svg">
<path fill-rule="evenodd" clip-rule="evenodd" d="M14 0C6.26801 0 0 6.26802 0 14V216.427C0 216.584 0.190249 216.663 0.301515 216.552V216.552C0.370491 216.483 0.482324 216.483 0.5513 216.552L14.4264 230.427C22.1582 238.159 22.1582 250.695 14.4264 258.426L0.551301 272.302C0.482324 272.371 0.370491 272.371 0.301516 272.302V272.302C0.190251 272.19 0 272.269 0 272.426V337C0 344.732 6.26802 351 14 351H416C423.732 351 430 344.732 430 337V272C430 272 430 271.999 430 272V272C430 272 430 272 430 272L416 258C408.268 250.268 408.268 237.732 416 230L430 216C430 216 430 216 430 216V216C430 216.001 430 216 430 216V14C430 6.26801 423.732 0 416 0H14ZM39 244C39 245.381 40.1193 246.5 41.5 246.5H51.25C52.6307 246.5 53.75 245.381 53.75 244V244C53.75 242.619 52.6307 241.5 51.25 241.5H41.5C40.1193 241.5 39 242.619 39 244V244ZM83.25 244C83.25 245.381 84.3693 246.5 85.75 246.5H110.25C111.631 246.5 112.75 245.381 112.75 244V244C112.75 242.619 111.631 241.5 110.25 241.5H85.75C84.3693 241.5 83.25 242.619 83.25 244V244ZM142.25 244C142.25 245.381 143.369 246.5 144.75 246.5H169.25C170.631 246.5 171.75 245.381 171.75 244V244C171.75 242.619 170.631 241.5 169.25 241.5H144.75C143.369 241.5 142.25 242.619 142.25 244V244ZM201.25 244C201.25 245.381 202.369 246.5 203.75 246.5H228.25C229.631 246.5 230.75 245.381 230.75 244V244C230.75 242.619 229.631 241.5 228.25 241.5H203.75C202.369 241.5 201.25 242.619 201.25 244V244ZM260.25 244C260.25 245.381 261.369 246.5 262.75 246.5H287.25C288.631 246.5 289.75 245.381 289.75 244V244C289.75 242.619 288.631 241.5 287.25 241.5H262.75C261.369 241.5 260.25 242.619 260.25 244V244ZM319.25 244C319.25 245.381 320.369 246.5 321.75 246.5H346.25C347.631 246.5 348.75 245.381 348.75 244V244C348.75 242.619 347.631 241.5 346.25 241.5H321.75C320.369 241.5 319.25 242.619 319.25 244V244ZM378.25 244C378.25 245.381 379.369 246.5 380.75 246.5H390.5C391.881 246.5 393 245.381 393 244V244C393 242.619 391.881 241.5 390.5 241.5H380.75C379.369 241.5 378.25 242.619 378.25 244V244Z" fill="#F6F6F6"/>
<mask id="mask0_617_20645" style="mask-type:alpha" maskUnits="userSpaceOnUse" x="0" y="0" width="430" height="351">
<path fill-rule="evenodd" clip-rule="evenodd" d="M14 0C6.26801 0 0 6.26802 0 14V216.427C0 216.584 0.190249 216.663 0.301515 216.552V216.552C0.370491 216.483 0.482324 216.483 0.5513 216.552L14.4264 230.427C22.1582 238.159 22.1582 250.695 14.4264 258.426L0.551301 272.302C0.482324 272.371 0.370491 272.371 0.301516 272.302V272.302C0.190251 272.19 0 272.269 0 272.426V337C0 344.732 6.26802 351 14 351H416C423.732 351 430 344.732 430 337V272C430 272 430 271.999 430 272V272C430 272 430 272 430 272L416 258C408.268 250.268 408.268 237.732 416 230L430 216C430 216 430 216 430 216V216C430 216.001 430 216 430 216V14C430 6.26801 423.732 0 416 0H14ZM39 244C39 245.381 40.1193 246.5 41.5 246.5H51.25C52.6307 246.5 53.75 245.381 53.75 244V244C53.75 242.619 52.6307 241.5 51.25 241.5H41.5C40.1193 241.5 39 242.619 39 244V244ZM83.25 244C83.25 245.381 84.3693 246.5 85.75 246.5H110.25C111.631 246.5 112.75 245.381 112.75 244V244C112.75 242.619 111.631 241.5 110.25 241.5H85.75C84.3693 241.5 83.25 242.619 83.25 244V244ZM142.25 244C142.25 245.381 143.369 246.5 144.75 246.5H169.25C170.631 246.5 171.75 245.381 171.75 244V244C171.75 242.619 170.631 241.5 169.25 241.5H144.75C143.369 241.5 142.25 242.619 142.25 244V244ZM201.25 244C201.25 245.381 202.369 246.5 203.75 246.5H228.25C229.631 246.5 230.75 245.381 230.75 244V244C230.75 242.619 229.631 241.5 228.25 241.5H203.75C202.369 241.5 201.25 242.619 201.25 244V244ZM260.25 244C260.25 245.381 261.369 246.5 262.75 246.5H287.25C288.631 246.5 289.75 245.381 289.75 244V244C289.75 242.619 288.631 241.5 287.25 241.5H262.75C261.369 241.5 260.25 242.619 260.25 244V244ZM319.25 244C319.25 245.381 320.369 246.5 321.75 246.5H346.25C347.631 246.5 348.75 245.381 348.75 244V244C348.75 242.619 347.631 241.5 346.25 241.5H321.75C320.369 241.5 319.25 242.619 319.25 244V244ZM378.25 244C378.25 245.381 379.369 246.5 380.75 246.5H390.5C391.881 246.5 393 245.381 393 244V244C393 242.619 391.881 241.5 390.5 241.5H380.75C379.369 241.5 378.25 242.619 378.25 244V244Z" fill="#F6F6F6"/>
</mask>
<g mask="url(#mask0_617_20645)">
<rect x="-7" y="244" width="447" height="151" fill="#5137C3"/>
</g>
</svg>
