<svg width="226" height="129" viewBox="0 0 226 129" fill="none" xmlns="http://www.w3.org/2000/svg">
<rect y="0.378906" width="225.24" height="128.24" rx="8" fill="#9ACD90"/>
<path d="M45.601 65.8728H42.4602V73H39.3677V56.088H42.4602V63.1669H45.6976L50.5538 56.088H53.8878L48.1136 64.2782L54.1053 73H50.5538L45.601 65.8728ZM67.9105 60.0986L61.8705 74.0389C61.3067 75.4402 60.6222 76.4227 59.8169 76.9864C59.0115 77.5662 58.0371 77.8562 56.8935 77.8562C56.2492 77.8562 55.613 77.7515 54.9849 77.5421C54.3567 77.3327 53.8413 77.0428 53.4386 76.6723L54.6466 74.4496C54.9365 74.7234 55.2748 74.9409 55.6613 75.1019C56.064 75.263 56.4667 75.3435 56.8693 75.3435C57.4009 75.3435 57.8357 75.2066 58.174 74.9328C58.5283 74.659 58.8505 74.1999 59.1404 73.5557L59.3578 73.0483L53.7285 60.0986H56.8693L60.9282 69.6418L65.0113 60.0986H67.9105ZM82.378 60.0986V73H79.3821V62.6595H73.028V73H70.008V60.0986H82.378ZM86.4529 60.0986H89.4729V68.6029L96.6001 60.0986H99.3543V73H96.3343V64.4957L89.2313 73H86.4529V60.0986ZM113.636 62.6595H109.119V73H106.099V62.6595H101.556V60.0986H113.636V62.6595ZM122.302 64.3507C123.945 64.3507 125.201 64.7212 126.071 65.4621C126.957 66.203 127.4 67.2499 127.4 68.6029C127.4 70.0203 126.917 71.1155 125.95 71.8886C124.984 72.6618 123.623 73.0403 121.867 73.0242L115.827 73V60.0986H118.847V64.3266L122.302 64.3507ZM121.601 70.8014C122.487 70.8175 123.164 70.6323 123.631 70.2458C124.098 69.8592 124.331 69.2955 124.331 68.5546C124.331 67.8298 124.106 67.2982 123.655 66.96C123.204 66.6218 122.519 66.4446 121.601 66.4285L118.847 66.4043V70.7773L121.601 70.8014Z" fill="#212121"/>
<path fill-rule="evenodd" clip-rule="evenodd" d="M153.909 50.688C154.032 50.0746 154.628 49.6769 155.242 49.7996L156.826 50.1165C158.616 50.4744 159.962 51.959 160.144 53.7751L160.272 55.0626H180.771C183.768 55.0626 185.966 57.8783 185.239 60.7851L183.544 67.5665C182.83 70.4234 180.263 72.4276 177.318 72.4276H163.739C161.637 72.4276 159.866 70.8568 159.616 68.7698L158.122 56.3189L157.89 54.0005C157.807 53.175 157.195 52.5002 156.382 52.3375L154.797 52.0206C154.184 51.8979 153.786 51.3013 153.909 50.688ZM165.589 65.6323C164.964 65.6323 164.457 66.1394 164.457 66.7648C164.457 67.3903 164.964 67.8973 165.589 67.8973H171.629C172.255 67.8973 172.762 67.3903 172.762 66.7648C172.762 66.1394 172.255 65.6323 171.629 65.6323H165.589Z" fill="#212121"/>
<circle cx="164.835" cy="76.5814" r="2.265" fill="#212121"/>
<circle cx="178.425" cy="76.5814" r="2.265" fill="#212121"/>
</svg>
