<svg width="23" height="23" viewBox="0 0 23 23" fill="none" xmlns="http://www.w3.org/2000/svg">
<g clip-path="url(#clip0_501_2491)">
<path fill-rule="evenodd" clip-rule="evenodd" d="M22.8932 11.9485C22.8932 18.0427 17.9528 22.983 11.8587 22.983C5.76453 22.983 0.824219 18.0427 0.824219 11.9485C0.824219 5.85437 5.76453 0.914062 11.8587 0.914062C17.9528 0.914062 22.8932 5.85437 22.8932 11.9485ZM12.2541 9.06011C11.1809 9.50653 9.03583 10.4305 5.81906 11.832C5.2967 12.0397 5.02307 12.2429 4.99815 12.4416C4.95606 12.7774 5.37659 12.9096 5.94923 13.0897C6.02714 13.1142 6.10784 13.1396 6.19059 13.1665C6.75399 13.3496 7.51187 13.5639 7.90585 13.5724C8.26324 13.5801 8.66212 13.4328 9.1025 13.1303C12.1081 11.1016 13.6595 10.0761 13.7569 10.054C13.8256 10.0384 13.9208 10.0188 13.9853 10.0761C14.0498 10.1335 14.0435 10.2421 14.0367 10.2712C13.9951 10.4488 12.3443 11.9835 11.49 12.7776C11.2237 13.0253 11.0348 13.2009 10.9962 13.241C10.9097 13.3309 10.8216 13.4158 10.7368 13.4975C10.2134 14.0021 9.82091 14.3804 10.7586 14.9984C11.2092 15.2953 11.5697 15.5409 11.9294 15.7858C12.3223 16.0534 12.7142 16.3202 13.2211 16.6525C13.3503 16.7372 13.4736 16.8251 13.5937 16.9108C14.051 17.2367 14.4616 17.5295 14.9691 17.4828C15.2639 17.4557 15.5685 17.1785 15.7232 16.3515C16.0888 14.3973 16.8073 10.1631 16.9734 8.41831C16.9879 8.26545 16.9696 8.0698 16.9549 7.98393C16.9402 7.89804 16.9095 7.77568 16.7978 7.6851C16.6656 7.57782 16.4616 7.5552 16.3703 7.55681C15.9553 7.56411 15.3185 7.78553 12.2541 9.06011Z" fill="#E5E5E5"/>
</g>
<defs>
<clipPath id="clip0_501_2491">
<rect width="22.069" height="22.069" fill="white" transform="translate(0.826172 0.914062)"/>
</clipPath>
</defs>
</svg>
