<svg width="268" height="288" viewBox="0 0 268 288" fill="none" xmlns="http://www.w3.org/2000/svg">
<path fill-rule="evenodd" clip-rule="evenodd" d="M155.563 31.1484H76.5003C51.3599 31.1484 30.9795 51.5288 30.9795 76.6693V88.3901C30.9795 93.8102 34.758 97.7327 38.8454 99.142C45.4314 101.413 50.1462 107.666 50.1462 115.003C50.1462 122.339 45.4314 128.592 38.8454 130.863C34.758 132.272 30.9795 136.195 30.9795 141.615V153.336C30.9795 178.476 51.3599 198.857 76.5003 198.857H155.563V162.919C155.563 158.949 158.781 155.731 162.75 155.731C166.72 155.731 169.938 158.949 169.938 162.919V198.857H191.5C216.641 198.857 237.021 178.476 237.021 153.336V141.615C237.021 136.195 233.243 132.272 229.155 130.863C222.569 128.592 217.855 122.339 217.855 115.003C217.855 107.666 222.569 101.413 229.155 99.142C233.243 97.7327 237.021 93.8102 237.021 88.3901V76.6693C237.021 51.5288 216.641 31.1484 191.5 31.1484H169.938V67.0856C169.938 71.0552 166.72 74.2731 162.75 74.2731C158.781 74.2731 155.563 71.0552 155.563 67.0856V31.1484ZM162.75 93.4398C166.72 93.4398 169.938 96.6577 169.938 100.627V129.377C169.938 133.347 166.72 136.565 162.75 136.565C158.781 136.565 155.563 133.347 155.563 129.377V100.627C155.563 96.6577 158.781 93.4398 162.75 93.4398Z" fill="#DBDBDB" fill-opacity="0.5"/>
<path d="M17.7011 268.2L10.5491 281.496C9.86107 282.776 9.02907 283.744 8.05307 284.4C7.09307 285.056 6.04507 285.384 4.90907 285.384C4.02907 285.384 3.11707 285.192 2.17307 284.808L3.10907 281.856C3.78107 282.064 4.34107 282.168 4.78907 282.168C5.26907 282.168 5.70107 282.056 6.08507 281.832C6.46907 281.592 6.82107 281.224 7.14107 280.728L7.28507 280.536L0.661068 268.2H4.81307L9.27707 277.224L13.8851 268.2H17.7011ZM38.6731 276.24C39.6971 276.544 40.4811 277.04 41.0251 277.728C41.5691 278.416 41.8411 279.264 41.8411 280.272C41.8411 281.76 41.2731 282.92 40.1371 283.752C39.0171 284.584 37.4091 285 35.3131 285H27.0331V268.2H34.8571C36.8091 268.2 38.3291 268.576 39.4171 269.328C40.5051 270.08 41.0491 271.152 41.0491 272.544C41.0491 273.376 40.8411 274.112 40.4251 274.752C40.0091 275.376 39.4251 275.872 38.6731 276.24ZM30.8971 275.16H34.5211C35.3691 275.16 36.0091 274.992 36.4411 274.656C36.8731 274.304 37.0891 273.792 37.0891 273.12C37.0891 272.464 36.8651 271.96 36.4171 271.608C35.9851 271.256 35.3531 271.08 34.5211 271.08H30.8971V275.16ZM35.1691 282.12C36.9931 282.12 37.9051 281.4 37.9051 279.96C37.9051 278.568 36.9931 277.872 35.1691 277.872H30.8971V282.12H35.1691ZM56.4599 281.4H48.6599L47.1719 285H43.1879L50.6759 268.2H54.5159L62.0279 285H57.9479L56.4599 281.4ZM55.2359 278.448L52.5719 272.016L49.9079 278.448H55.2359ZM72.1334 285.288C70.4214 285.288 68.8694 284.92 67.4774 284.184C66.1014 283.432 65.0134 282.4 64.2134 281.088C63.4294 279.76 63.0374 278.264 63.0374 276.6C63.0374 274.936 63.4294 273.448 64.2134 272.136C65.0134 270.808 66.1014 269.776 67.4774 269.04C68.8694 268.288 70.4294 267.912 72.1574 267.912C73.6134 267.912 74.9254 268.168 76.0934 268.68C77.2774 269.192 78.2694 269.928 79.0694 270.888L76.5734 273.192C75.4374 271.88 74.0294 271.224 72.3494 271.224C71.3094 271.224 70.3814 271.456 69.5654 271.92C68.7494 272.368 68.1094 273 67.6454 273.816C67.1974 274.632 66.9734 275.56 66.9734 276.6C66.9734 277.64 67.1974 278.568 67.6454 279.384C68.1094 280.2 68.7494 280.84 69.5654 281.304C70.3814 281.752 71.3094 281.976 72.3494 281.976C74.0294 281.976 75.4374 281.312 76.5734 279.984L79.0694 282.288C78.2694 283.264 77.2774 284.008 76.0934 284.52C74.9094 285.032 73.5894 285.288 72.1334 285.288ZM104.144 268.2V285H100.256V278.112H92.6244V285H88.7364V268.2H92.6244V274.824H100.256V268.2H104.144ZM121.53 281.88V285H108.522V268.2H121.218V271.32H112.386V274.968H120.186V277.992H112.386V281.88H121.53ZM137.678 271.368H132.302V285H128.462V271.368H123.11V268.2H137.678V271.368ZM160.092 271.368H154.716V285H150.876V271.368H145.524V268.2H160.092V271.368ZM162.701 268.2H166.565V279.144L174.581 268.2H178.229V285H174.389V274.08L166.373 285H162.701V268.2ZM189.084 278.232H186.396V285H182.532V268.2H186.396V274.992H189.18L193.596 268.2H197.7L192.204 276.312L197.868 285H193.452L189.084 278.232ZM212.866 281.88V285H199.858V268.2H212.554V271.32H203.722V274.968H211.522V277.992H203.722V281.88H212.866ZM229.014 271.368H223.638V285H219.798V271.368H214.446V268.2H229.014V271.368ZM239.405 285.288C237.661 285.288 236.085 284.912 234.677 284.16C233.285 283.408 232.189 282.376 231.389 281.064C230.605 279.736 230.213 278.248 230.213 276.6C230.213 274.952 230.605 273.472 231.389 272.16C232.189 270.832 233.285 269.792 234.677 269.04C236.085 268.288 237.661 267.912 239.405 267.912C241.149 267.912 242.717 268.288 244.109 269.04C245.501 269.792 246.597 270.832 247.397 272.16C248.197 273.472 248.597 274.952 248.597 276.6C248.597 278.248 248.197 279.736 247.397 281.064C246.597 282.376 245.501 283.408 244.109 284.16C242.717 284.912 241.149 285.288 239.405 285.288ZM239.405 281.976C240.397 281.976 241.293 281.752 242.093 281.304C242.893 280.84 243.517 280.2 243.965 279.384C244.429 278.568 244.661 277.64 244.661 276.6C244.661 275.56 244.429 274.632 243.965 273.816C243.517 273 242.893 272.368 242.093 271.92C241.293 271.456 240.397 271.224 239.405 271.224C238.413 271.224 237.517 271.456 236.717 271.92C235.917 272.368 235.285 273 234.821 273.816C234.373 274.632 234.149 275.56 234.149 276.6C234.149 277.64 234.373 278.568 234.821 279.384C235.285 280.2 235.917 280.84 236.717 281.304C237.517 281.752 238.413 281.976 239.405 281.976ZM263.4 276.24C264.424 276.544 265.208 277.04 265.752 277.728C266.296 278.416 266.568 279.264 266.568 280.272C266.568 281.76 266 282.92 264.864 283.752C263.744 284.584 262.136 285 260.04 285H251.76V268.2H259.584C261.536 268.2 263.056 268.576 264.144 269.328C265.232 270.08 265.776 271.152 265.776 272.544C265.776 273.376 265.568 274.112 265.152 274.752C264.736 275.376 264.152 275.872 263.4 276.24ZM255.624 275.16H259.248C260.096 275.16 260.736 274.992 261.168 274.656C261.6 274.304 261.816 273.792 261.816 273.12C261.816 272.464 261.592 271.96 261.144 271.608C260.712 271.256 260.08 271.08 259.248 271.08H255.624V275.16ZM259.896 282.12C261.72 282.12 262.632 281.4 262.632 279.96C262.632 278.568 261.72 277.872 259.896 277.872H255.624V282.12H259.896Z" fill="#DBDBDB"/>
</svg>
