<svg width="23" height="23" viewBox="0 0 23 23" fill="none" xmlns="http://www.w3.org/2000/svg">
<g clip-path="url(#clip0_501_2488)">
<path fill-rule="evenodd" clip-rule="evenodd" d="M2.21465 2.46269C0.666016 4.01132 0.666016 6.50381 0.666016 11.4888V12.4083C0.666016 17.3933 0.666016 19.8857 2.21465 21.4344C3.76327 22.983 6.25576 22.983 11.2408 22.983H12.1602C17.1452 22.983 19.6377 22.983 21.1863 21.4344C22.735 19.8857 22.735 17.3933 22.735 12.4083V11.4888C22.735 6.50381 22.735 4.01132 21.1863 2.46269C19.6377 0.914062 17.1452 0.914062 12.1602 0.914062H11.2408C6.25576 0.914062 3.76327 0.914062 2.21465 2.46269ZM5.03388 7.81061H6.64345C7.0548 7.81061 7.20955 7.99062 7.36381 8.43622C8.15103 10.7288 9.47833 12.7324 10.024 12.7324C10.2286 12.7324 10.3225 12.6382 10.3225 12.1187V9.74891C10.2855 9.07438 10.0498 8.78266 9.87525 8.56662C9.76744 8.43314 9.68293 8.32859 9.68293 8.1805C9.68293 8.0005 9.83677 7.81061 10.0925 7.81061H12.6219C12.9629 7.81061 13.0817 7.99296 13.0817 8.40215V11.5901C13.0817 11.9311 13.2298 12.0505 13.3321 12.0505C13.5367 12.0505 13.7073 11.9311 14.0824 11.556C15.242 10.2604 16.0604 8.2657 16.0604 8.2657C16.1628 8.02707 16.3515 7.81061 16.7607 7.81061H18.3703C18.8571 7.81061 18.9594 8.06115 18.8571 8.40215C18.6524 9.33976 16.6914 12.1016 16.6914 12.1016C16.5209 12.3744 16.4526 12.5108 16.6914 12.8176C16.7755 12.9353 16.9548 13.111 17.1602 13.312C17.3711 13.5187 17.6096 13.7522 17.7998 13.9769C18.4912 14.7545 19.0122 15.4106 19.1574 15.8627C19.29 16.3164 19.0601 16.5462 18.6003 16.5462H16.9906C16.5596 16.5462 16.3425 16.3049 15.8733 15.7831C15.6745 15.5619 15.4305 15.2905 15.1055 14.9657C14.1507 14.0451 13.7414 13.9257 13.5026 13.9257C13.1786 13.9257 13.0817 14.0175 13.0817 14.4772V15.9205C13.0817 16.3164 12.9551 16.5462 11.932 16.5462C10.2268 16.5462 8.35287 15.5112 7.0228 13.6018C5.0277 10.8059 4.48202 8.69195 4.48202 8.2657C4.48202 8.02707 4.574 7.81061 5.03388 7.81061Z" fill="#E5E5E5"/>
</g>
<defs>
<clipPath id="clip0_501_2488">
<rect width="22.069" height="22.069" fill="white" transform="translate(0.664062 0.914062)"/>
</clipPath>
</defs>
</svg>
