<svg width="23" height="23" viewBox="0 0 23 23" fill="none" xmlns="http://www.w3.org/2000/svg">
<g clip-path="url(#clip0_501_2497)">
<path d="M21.9996 7.53469C21.9996 7.53469 21.784 6.01314 21.1202 5.34503C20.2797 4.46572 19.3401 4.46141 18.909 4.40969C15.8228 4.18555 11.1892 4.18555 11.1892 4.18555H11.1806C11.1806 4.18555 6.54694 4.18555 3.46074 4.40969C3.0297 4.46141 2.09004 4.46572 1.24953 5.34503C0.585735 6.01314 0.374528 7.53469 0.374528 7.53469C0.374528 7.53469 0.150391 9.32348 0.150391 11.108V12.7803C0.150391 14.5648 0.370219 16.3537 0.370219 16.3537C0.370219 16.3537 0.585735 17.8752 1.24522 18.5433C2.08574 19.4226 3.18919 19.3924 3.68056 19.4873C5.44781 19.6554 11.1849 19.7071 11.1849 19.7071C11.1849 19.7071 15.8228 19.6985 18.909 19.4787C19.3401 19.4269 20.2797 19.4226 21.1202 18.5433C21.784 17.8752 21.9996 16.3537 21.9996 16.3537C21.9996 16.3537 22.2194 14.5691 22.2194 12.7803V11.108C22.2194 9.32348 21.9996 7.53469 21.9996 7.53469ZM8.9047 14.8106V8.60797L14.8659 11.72L8.9047 14.8106Z" fill="#E5E5E5"/>
</g>
<defs>
<clipPath id="clip0_501_2497">
<rect width="22.069" height="22.069" fill="white" transform="translate(0.152344 0.914062)"/>
</clipPath>
</defs>
</svg>
